<svg xmlns="http://www.w3.org/2000/svg" width="500" viewBox="0 0 375 375" height="500" version="1.0"><defs><clipPath id="id1"><path d="M13.793 2.676H361v369.75H13.793Zm0 0"/></clipPath></defs><path fill="#fff" d="M-37.5-37.5h450v450h-450z"/><path fill="#08c" d="M173.54 10.488 36.854 75.234c-11.101 5.383-18.214 16.668-18.214 29.164l.172 166.301c0 12.324 7.113 23.781 18.386 28.992l136.516 64.922c8.672 4.168 18.906 4.168 27.578 0l136.687-64.922c11.274-5.382 18.387-16.668 18.387-29.164v-166.3c0-12.5-7.113-23.782-18.387-28.993L201.121 10.488c-8.672-4.168-18.734-4.168-27.582 0Zm0 0"/><g clip-path="url('#id1')"><path fill="#fff" d="M187.418 372.426c-5.379 0-10.754-1.215-15.785-3.645L35.12 303.855C22.457 297.781 14.13 284.762 14.13 270.7l-.172-166.3c0-14.235 8.152-27.254 20.988-33.329L171.633 6.32c10.058-4.687 21.508-4.687 31.57 0l136.688 64.922c12.836 6.078 20.988 19.098 20.988 33.156V270.7c0 14.063-8.328 27.254-20.988 33.332l-136.688 64.922c-5.031 2.258-10.41 3.473-15.785 3.473ZM175.621 14.652 38.934 79.402c-9.54 4.512-15.782 14.41-15.782 24.996l.172 166.301c0 10.59 6.246 20.313 15.785 24.824l136.512 64.922a26.79 26.79 0 0 0 23.59 0l136.687-64.922c9.54-4.511 15.786-14.234 15.786-24.824V104.4c0-10.587-6.247-20.31-15.786-24.825L199.211 14.652a26.815 26.815 0 0 0-23.59 0Zm0 0"/></g><path fill="#fff" d="M198.957 341.527a7.29 7.29 0 0 1-7.289 7.293h-5.566a7.288 7.288 0 0 1-7.29-7.293V205.594a7.287 7.287 0 0 1 7.29-7.29h5.566a7.29 7.29 0 0 1 7.289 7.294v135.93M223.605 323.09c0 4.023-3.265 7.293-7.289 7.293h-.43c-4.023 0-7.288-3.27-7.288-7.293v-99.055a7.293 7.293 0 0 1 7.289-7.293h.43a7.293 7.293 0 0 1 7.288 7.293v99.055M245.035 304.012a6.857 6.857 0 0 1-6.855 6.855 6.858 6.858 0 0 1-6.864-6.855v-60.895a6.86 6.86 0 1 1 13.72 0v60.895M265.184 320.73a6.003 6.003 0 0 1-6.004 6.004 6 6 0 0 1-6-6.004v-94.343a6.002 6.002 0 1 1 12.004.004v94.343M284.047 294.145a5.571 5.571 0 1 1-11.145 0v-41.172a5.57 5.57 0 0 1 5.57-5.57 5.574 5.574 0 0 1 5.575 5.57v41.172M300.766 287.29a4.718 4.718 0 0 1-9.434 0v-27.45a4.718 4.718 0 0 1 9.434 0v27.45M314.055 281.066a3.859 3.859 0 1 1-7.72 0V266.06a3.853 3.853 0 0 1 3.856-3.856 3.853 3.853 0 0 1 3.864 3.856v15.007M154.16 323.09c0 4.023 3.266 7.293 7.29 7.293h.421c4.027 0 7.29-3.27 7.29-7.293v-99.055a7.29 7.29 0 0 0-7.29-7.293h-.422a7.293 7.293 0 0 0-7.289 7.293v99.055M132.723 304.012a6.858 6.858 0 0 0 6.863 6.855 6.86 6.86 0 0 0 6.86-6.855v-60.895a6.862 6.862 0 1 0-13.723 0v60.895M112.578 320.73a6.003 6.003 0 0 0 6.004 6.004 6 6 0 0 0 6-6.004v-94.343a6.002 6.002 0 1 0-12.004.004v94.343M93.719 294.145a5.574 5.574 0 0 0 5.57 5.574 5.569 5.569 0 0 0 5.57-5.574v-41.172a5.568 5.568 0 0 0-5.57-5.57 5.573 5.573 0 0 0-5.57 5.57v41.172M77 287.29a4.718 4.718 0 0 0 9.434 0v-27.45a4.718 4.718 0 0 0-9.434 0v27.45M63.71 281.066a3.857 3.857 0 1 0 7.716 0V266.06a3.85 3.85 0 0 0-3.86-3.856 3.851 3.851 0 0 0-3.855 3.856v15.007M86.623 180.837c15.097 7.07 33.062.766 40.324-14.336l5.734-12.421-5.16-21.407c-.191-1.336 1.149-1.527 1.531-.765l16.434 34.593c7.074 15.102 25.039 21.407 40.137 14.336 15.101-7.07 21.406-25.23 14.336-39.945L163.455 64.06c-11.086-23.316-44.153-22.934-55.047.191l-36.121 76.641c-7.07 14.715-.766 32.875 14.336 39.945ZM237.984 183.322h36.317c39.753 0 39.753-61.16 0-61.16h-6.692l.383-44.532c0-16.629-13.57-30.39-30.578-30.39-16.82 0-30.39 13.761-30.39 30.39v74.73c-.575 17.583 13.187 30.962 30.96 30.962Zm0 0"/></svg>