<svg xmlns="http://www.w3.org/2000/svg" width="793" viewBox="0 0 594.96 842.25" height="1122" version="1.0"><defs><clipPath id="id1"><path d="M.246 0h594.43v841.5H.246Zm0 0"/></clipPath><clipPath id="id2"><path d="M.246 0h594.43v841H.246Zm0 0"/></clipPath><clipPath id="id3"><path d="M.246 0h594.43v840.793H.246Zm0 0"/></clipPath></defs><g clip-path="url('#id1')"><path fill="#fff" d="M.246 0h594.469v1688.328H.246Zm0 0"/></g><g clip-path="url('#id2')"><path fill="#da2912" d="M.246 0h594.469v840.793H.246Zm0 0"/></g><g clip-path="url('#id3')"><path fill="#fff" d="M.246 0h594.469v840.793H.246Zm0 0"/><path fill="#da2912" d="M.246 0h594.469v840.793H.246Zm0 0"/></g><path fill="#ddd1b8" d="M236.855 653.555h-45.53v-9.864h45.53Zm63.54-36.875c-7.586-14.64-21.508-24.68-30.2-38.274-11.132-17.441 7.946-34.554 10.512-51.777 1.68-11.274-.23-24.145-5.996-34.531-8.844-15.82-21.238-26.348-42.649-28.446-.292-.023-.585-.047-.875-.082l.958 89.047c8.132 5.656 13.464 15.063 13.464 25.707 0 17.301-14.039 31.328-31.355 31.328-17.316 0-31.352-14.027-31.352-31.328 0-10.586 5.262-19.949 13.325-25.613l.886-87.965c-7.152 1.238-13.933 3.184-19.558 6.04-9.102 4.616-17.375 13.245-21.883 21.312-5.93 10.597-6.832 23.316-4.172 34.683 2.59 11.125 9.965 20.555 13.418 31.34 6.094 19.04-16.73 37.375-27.281 52.313-15.051 21.273-16.227 50.433-1.5 69.902 16.254 21.484 53.183 31.418 83.718 30.383 4.329-.14 16.77-.934 20.958-1.633 25.007-4.2 45.953-11.508 58.613-30.465 13.078-19.61 11.363-41.863.969-61.941"/><path fill="#6e4519" d="M238.164 578.324c0 13.2-10.71 23.887-23.91 23.887-13.207 0-23.91-10.688-23.91-23.887 0-13.187 10.703-23.875 23.91-23.875 13.2 0 23.91 10.688 23.91 23.875"/><path fill="#4a2d0f" d="M214.254 554.45c-7.188 0-13.617 3.155-18.004 8.171 12.79.465 23.023 10.969 23.023 23.863 0 6.016-2.242 11.508-5.918 15.703.293.012.598.024.899.024 13.2 0 23.91-10.688 23.91-23.887 0-13.183-10.71-23.875-23.91-23.875"/><path fill="#070303" d="M214.254 554.45c-13.207 0-23.91 10.69-23.91 23.874 0 13.2 10.703 23.887 23.91 23.887 13.2 0 23.91-10.688 23.91-23.887 0-13.183-10.71-23.875-23.91-23.875M232.246 304.11h5.426v-3.59h-5.426Zm0 0"/><path fill="#070303" d="M245.492 303.352c-.363 1.05-1.656 1.535-2.601 1.875-.735.261-1.496.46-2.254.605a5.499 5.499 0 0 1-.946.094 2.553 2.553 0 0 1-2.554-2.555v-2.117a2.556 2.556 0 0 1 2.554-2.559c.305 0 .621.043.91.098.399.082.794.176 1.18.285.434.121.852.274 1.274.426.406.156.78.355 1.175.55.68.368 1.204.81 1.356 1.59.07.317.082.633.059.954-.024.261-.07.52-.153.754M232.246 290.594h5.426v-3.59h-5.426Zm0 0"/><path fill="#070303" d="M245.492 289.84c-.363 1.043-1.656 1.535-2.601 1.867-.735.266-1.496.465-2.254.606a5.504 5.504 0 0 1-.946.097 2.556 2.556 0 0 1-2.554-2.555v-2.117a2.553 2.553 0 0 1 2.554-2.554c.305 0 .621.039.91.097.399.074.794.172 1.18.278.434.128.852.273 1.274.433.406.153.78.352 1.175.551.68.36 1.204.805 1.356 1.586.07.312.082.633.059.945-.024.27-.07.524-.153.766M232.246 277.07h5.426v-3.586h-5.426Zm0 0"/><path fill="#070303" d="M245.492 276.324c-.363 1.043-1.656 1.535-2.601 1.867-.735.266-1.496.465-2.254.606a5.504 5.504 0 0 1-.946.098 2.556 2.556 0 0 1-2.554-2.555v-2.117a2.553 2.553 0 0 1 2.554-2.555c.305 0 .621.039.91.098.399.078.794.168 1.18.277.434.129.852.273 1.274.43.406.16.78.355 1.175.554.68.356 1.204.801 1.356 1.586.07.313.082.633.059.946a3.13 3.13 0 0 1-.153.765M232.246 263.559h5.426v-3.586h-5.426Zm0 0"/><path fill="#070303" d="M245.492 262.809c-.363 1.043-1.656 1.53-2.601 1.87-.735.262-1.496.466-2.254.602a5.499 5.499 0 0 1-.946.094 2.552 2.552 0 0 1-2.554-2.55v-2.122a2.556 2.556 0 0 1 2.554-2.555c.305 0 .621.047.91.102.399.074.794.168 1.18.281.434.125.852.27 1.274.43.406.148.78.351 1.175.55.68.36 1.204.801 1.356 1.587.07.316.082.632.059.949-.024.265-.07.523-.153.762M190.836 263.559h5.414v-3.586h-5.414Zm0 0"/><path fill="#070303" d="M183.016 260.719c.363-1.04 1.66-1.531 2.605-1.867a13.57 13.57 0 0 1 2.25-.606c.305-.055.617-.098.934-.098a2.556 2.556 0 0 1 2.566 2.555v2.121c0 1.41-1.14 2.551-2.566 2.551-.293 0-.606-.04-.899-.098a13.6 13.6 0 0 1-1.18-.277c-.43-.125-.863-.277-1.269-.434-.41-.148-.793-.351-1.18-.55-.687-.36-1.203-.797-1.363-1.586a3.66 3.66 0 0 1-.047-.946c.024-.27.059-.523.149-.765M190.836 277.07h5.414v-3.586h-5.414Zm0 0"/><path fill="#070303" d="M183.016 274.234c.363-1.043 1.66-1.535 2.605-1.867.734-.262 1.48-.469 2.25-.601.305-.059.617-.098.934-.098a2.556 2.556 0 0 1 2.566 2.555v2.117c0 1.41-1.14 2.555-2.566 2.555-.293 0-.606-.043-.899-.102a12.323 12.323 0 0 1-1.18-.281c-.43-.125-.863-.27-1.269-.43-.41-.148-.793-.348-1.18-.55-.687-.36-1.203-.802-1.363-1.587a3.66 3.66 0 0 1-.047-.945c.024-.27.059-.523.149-.766M190.836 290.594h5.414v-3.59h-5.414Zm0 0"/><path fill="#070303" d="M183.016 287.75c.363-1.043 1.66-1.527 2.605-1.867.734-.262 1.48-.469 2.25-.606a5.29 5.29 0 0 1 .934-.093 2.553 2.553 0 0 1 2.566 2.554v2.117c0 1.41-1.14 2.555-2.566 2.555-.293 0-.606-.043-.899-.101-.394-.07-.793-.168-1.18-.278-.43-.125-.863-.273-1.269-.433-.41-.149-.793-.348-1.18-.555-.687-.352-1.203-.797-1.363-1.586a3.634 3.634 0 0 1-.047-.945c.024-.266.059-.524.149-.762M190.836 304.11h5.414v-3.59h-5.414Zm0 0"/><path fill="#070303" d="M183.016 301.266c.363-1.04 1.66-1.528 2.605-1.871.734-.254 1.48-.465 2.25-.602.305-.055.617-.098.934-.098a2.557 2.557 0 0 1 2.566 2.559v2.117a2.553 2.553 0 0 1-2.566 2.555c-.293 0-.606-.047-.899-.102a13.621 13.621 0 0 1-1.18-.281c-.43-.121-.863-.266-1.269-.426-.41-.152-.793-.351-1.18-.555-.687-.355-1.203-.8-1.363-1.582a3.712 3.712 0 0 1-.047-.953c.024-.261.059-.523.149-.761M227.02 550.262h-25.532l2.254-222.664h20.863l2.415 222.664"/><path fill="#fff" d="M201.605 540.527h25.297v-1.07h-25.297ZM201.605 530.305h25.297v-1.075h-25.297ZM201.805 520.09h24.879v-1.082h-24.88ZM201.805 509.855h24.761v-1.062h-24.761ZM202.016 499.629h24.445v-1.07h-24.445ZM202.11 489.418h24.245v-1.074H202.11ZM202.21 479.18h24.028v-1.059h-24.027ZM202.316 468.969h23.805v-1.086h-23.805ZM202.422 458.742h23.582v-1.07h-23.582ZM202.527 448.52h23.371v-1.075h-23.37ZM202.633 438.293h23.164v-1.07h-23.164ZM202.844 428.07h22.719v-1.074h-22.72ZM202.844 417.848h22.719v-1.075h-22.72ZM202.938 407.621h22.53v-1.07h-22.53ZM203.04 397.398h22.312v-1.074h-22.313ZM203.145 387.172h22.101v-1.07h-22.101ZM203.25 376.95h21.879v-1.075H203.25ZM203.355 366.723h21.657v-1.07h-21.657ZM203.46 356.5h21.446v-1.074h-21.445ZM203.46 346.281h21.333v-1.074h-21.332ZM203.66 336.055h21.028v-1.075H203.66Zm0 0"/><path fill="#070303" d="M224.29 266.602a3.76 3.76 0 0 1 0-7.52 3.77 3.77 0 0 1 3.769 3.762 3.767 3.767 0 0 1-3.77 3.758Zm0 14.226a3.756 3.756 0 1 1 0-7.512c2.077 0 3.769 1.684 3.769 3.754a3.764 3.764 0 0 1-3.77 3.758Zm0 14.23a3.757 3.757 0 1 1 0-7.512 3.767 3.767 0 0 1 3.769 3.759 3.763 3.763 0 0 1-3.77 3.754Zm0 14.235a3.76 3.76 0 0 1-3.759-3.758 3.754 3.754 0 0 1 3.758-3.758c2.078 0 3.77 1.68 3.77 3.758a3.77 3.77 0 0 1-3.77 3.758Zm-19.032-42.691a3.767 3.767 0 0 1-3.77-3.758 3.77 3.77 0 0 1 3.77-3.762 3.76 3.76 0 0 1 0 7.52Zm0 14.226a3.764 3.764 0 0 1-3.77-3.758c0-2.07 1.692-3.754 3.77-3.754a3.756 3.756 0 1 1 0 7.512Zm0 14.23a3.763 3.763 0 0 1-3.77-3.753 3.767 3.767 0 0 1 3.77-3.758 3.757 3.757 0 1 1 0 7.512Zm0 14.235a3.77 3.77 0 0 1-3.77-3.758 3.764 3.764 0 0 1 3.77-3.758 3.754 3.754 0 0 1 3.758 3.758 3.76 3.76 0 0 1-3.758 3.758Zm-9.008-53.207v54.922c8.39 4.43 7.492 16.59 7.492 16.59h20.863c-.128-12.012 8.461-16.016 8.461-16.016v-55.496c-20.62-15.441-36.816 0-36.816 0"/><path fill="#fff" d="M206.273 649.125h.352V327.609l-.352-.004ZM209.633 649.125h-.36l.29-321.527h.363l-.293 321.53M212.715 649.125h.347V327.609l-.347-.004ZM215.727 649.125h.347V327.609l-.347-.004ZM218.723 649.125h.363V327.609l-.363-.004ZM221.734 649.125l-.652-321.527h.36l.644 321.53h-.352"/><path fill="#070303" d="M358.645 186.758h45.53v9.863h-45.53Zm-63.536 36.875c7.582 14.644 21.504 24.68 30.2 38.273 11.128 17.442-7.95 34.559-10.516 51.778-1.68 11.273.234 24.144 6 34.53 8.844 15.821 21.234 26.349 42.648 28.446.29.024.582.047.875.082l-.957-89.047c-8.132-5.652-13.464-15.062-13.464-25.707 0-17.3 14.035-31.324 31.351-31.324 17.317 0 31.356 14.024 31.356 31.324 0 10.586-5.262 19.95-13.329 25.614l-.886 87.964c7.156-1.234 13.933-3.183 19.558-6.039 9.102-4.617 17.375-13.246 21.883-21.312 5.93-10.598 6.832-23.317 4.172-34.684-2.59-11.12-9.965-20.554-13.418-31.336-6.09-19.039 16.73-37.379 27.281-52.312 15.055-21.278 16.23-50.434 1.504-69.906-16.258-21.485-53.183-31.418-83.722-30.38-4.329.137-16.766.93-20.957 1.63-25.004 4.199-45.95 11.507-58.61 30.464-13.082 19.61-11.367 41.868-.969 61.942"/><path fill="#070303" d="M357.336 261.988c0-13.195 10.715-23.886 23.91-23.886 13.211 0 23.91 10.691 23.91 23.886 0 13.188-10.699 23.88-23.91 23.88-13.195 0-23.91-10.692-23.91-23.88"/><path fill="#070303" d="M381.246 285.867c7.188 0 13.617-3.16 18.004-8.176-12.79-.464-23.02-10.968-23.02-23.863a23.753 23.753 0 0 1 5.915-15.703 22.21 22.21 0 0 0-.899-.023c-13.195 0-23.91 10.691-23.91 23.886 0 13.188 10.715 23.88 23.91 23.88"/><path fill="#ddd1b8" d="M381.246 285.867c13.211 0 23.91-10.691 23.91-23.879 0-13.195-10.699-23.886-23.91-23.886-13.195 0-23.91 10.691-23.91 23.886 0 13.188 10.715 23.88 23.91 23.88M363.254 536.203h-5.426v3.59h5.426Zm0 0"/><path fill="#ddd1b8" d="M350.008 536.96c.363-1.046 1.66-1.534 2.605-1.87a14.296 14.296 0 0 1 2.25-.606c.317-.054.63-.097.946-.097a2.553 2.553 0 0 1 2.554 2.554v2.118a2.557 2.557 0 0 1-2.554 2.562c-.305 0-.618-.047-.91-.101a17.261 17.261 0 0 1-1.18-.282c-.43-.125-.852-.273-1.27-.43-.41-.156-.781-.355-1.18-.55-.675-.363-1.203-.809-1.351-1.59a3.393 3.393 0 0 1 .09-1.707M363.254 549.723h-5.426v3.586h5.426Zm0 0"/><path fill="#ddd1b8" d="M350.008 550.473c.363-1.043 1.66-1.535 2.605-1.868a14.296 14.296 0 0 1 2.25-.605c.317-.055.63-.098.946-.098a2.553 2.553 0 0 1 2.554 2.555v2.117a2.554 2.554 0 0 1-2.554 2.559c-.305 0-.618-.043-.91-.102a13.6 13.6 0 0 1-1.18-.277c-.43-.129-.852-.274-1.27-.434-.41-.148-.781-.351-1.18-.55-.675-.36-1.203-.801-1.351-1.586a3.453 3.453 0 0 1 .09-1.71M363.254 563.242h-5.426v3.59h5.426Zm0 0"/><path fill="#ddd1b8" d="M350.008 563.988c.363-1.043 1.66-1.535 2.605-1.867a14.296 14.296 0 0 1 2.25-.605c.317-.055.63-.094.946-.094a2.55 2.55 0 0 1 2.554 2.555v2.117c0 1.41-1.14 2.554-2.554 2.554-.305 0-.618-.043-.91-.101a15.205 15.205 0 0 1-1.18-.277c-.43-.13-.852-.274-1.27-.43-.41-.156-.781-.356-1.18-.555-.675-.355-1.203-.8-1.351-1.586a3.213 3.213 0 0 1-.059-.945c.024-.274.07-.527.149-.766M363.254 576.754h-5.426v3.59h5.426Zm0 0"/><path fill="#ddd1b8" d="M350.008 577.504c.363-1.04 1.66-1.527 2.605-1.871a14.719 14.719 0 0 1 2.25-.602c.317-.054.63-.093.946-.093a2.55 2.55 0 0 1 2.554 2.554v2.117c0 1.41-1.14 2.555-2.554 2.555-.305 0-.618-.047-.91-.101a11.25 11.25 0 0 1-1.18-.282c-.43-.12-.852-.27-1.27-.426-.41-.152-.781-.351-1.18-.554-.675-.36-1.203-.801-1.351-1.582a3.418 3.418 0 0 1 .09-1.715M404.668 576.754h-5.418v3.59h5.418Zm0 0"/><path fill="#ddd1b8" d="M412.484 579.594c-.363 1.039-1.656 1.531-2.601 1.87-.735.263-1.485.47-2.254.606-.3.055-.617.094-.934.094a2.558 2.558 0 0 1-2.566-2.555v-2.117a2.556 2.556 0 0 1 2.566-2.554c.293 0 .61.039.899.101.398.07.793.164 1.18.277.433.121.863.278 1.273.43.406.152.793.352 1.176.55.691.364 1.203.802 1.367 1.587.058.316.07.633.047.949-.024.266-.059.523-.153.762M404.668 563.242h-5.418v3.59h5.418Zm0 0"/><path fill="#ddd1b8" d="M412.484 566.078c-.363 1.043-1.656 1.535-2.601 1.867-.735.262-1.485.47-2.254.602-.3.058-.617.101-.934.101a2.56 2.56 0 0 1-2.566-2.554v-2.117a2.556 2.556 0 0 1 2.566-2.555c.293 0 .61.039.899.098.398.074.793.168 1.18.28.433.126.863.27 1.273.43.406.149.793.352 1.176.551.691.36 1.203.801 1.367 1.586.058.313.07.633.047.946-.024.269-.059.523-.153.765M404.668 549.723h-5.418v3.586h5.418Zm0 0"/><path fill="#ddd1b8" d="M412.484 552.563c-.363 1.042-1.656 1.53-2.601 1.867-.735.265-1.485.468-2.254.605-.3.055-.617.098-.934.098a2.559 2.559 0 0 1-2.566-2.559v-2.117a2.558 2.558 0 0 1 2.566-2.555c.293 0 .61.043.899.102.398.074.793.168 1.18.277.433.13.863.274 1.273.434.406.148.793.351 1.176.555.691.351 1.203.796 1.367 1.585.058.31.07.63.047.946-.024.265-.059.523-.153.761M404.668 536.203h-5.418v3.59h5.418Zm0 0"/><path fill="#ddd1b8" d="M412.484 539.047c-.363 1.043-1.656 1.527-2.601 1.871-.735.254-1.485.465-2.254.602-.3.054-.617.101-.934.101a2.562 2.562 0 0 1-2.566-2.562v-2.118a2.558 2.558 0 0 1 2.566-2.554c.293 0 .61.047.899.101.398.078.793.172 1.18.282.433.12.863.27 1.273.43.406.148.793.35 1.176.55.691.36 1.203.8 1.367 1.582.058.316.07.637.047.953-.024.266-.059.524-.153.762M368.48 290.05h25.532l-2.25 222.665h-20.864L368.48 290.05"/><path fill="#070303" d="M393.895 299.785h-25.297v1.074h25.297ZM393.895 310.012h-25.297v1.07h25.297ZM393.7 320.223h-24.88v1.086h24.88ZM393.7 330.46h-24.762v1.06h24.761ZM393.488 340.684h-24.445v1.074h24.445ZM393.395 350.898h-24.25v1.07h24.25ZM393.29 361.133h-24.028v1.062h24.027ZM393.184 371.344h-23.805v1.086h23.805ZM393.078 381.57h-23.582v1.075h23.582ZM392.973 391.793h-23.371v1.074h23.37ZM392.867 402.02h-23.16v1.07h23.16ZM392.66 412.242h-22.719v1.074h22.72ZM392.66 422.469h-22.719v1.07h22.72ZM392.566 432.691h-22.53v1.075h22.53ZM392.46 442.918h-22.312v1.07h22.313ZM392.355 453.14h-22.101v1.075h22.101ZM392.25 463.367h-21.879v1.07h21.879ZM392.145 473.59h-21.657v1.074h21.657ZM392.04 483.816h-21.446v1.07h21.445ZM392.04 494.031h-21.33v1.078h21.33ZM391.844 504.258h-21.028v1.074h21.028Zm0 0"/><path fill="#ddd1b8" d="M371.21 573.71a3.76 3.76 0 0 1 3.759 3.759 3.758 3.758 0 0 1-3.758 3.761 3.768 3.768 0 0 1-3.77-3.761 3.77 3.77 0 0 1 3.77-3.758Zm0-14.226a3.754 3.754 0 0 1 3.759 3.758A3.76 3.76 0 0 1 371.21 567a3.77 3.77 0 0 1-3.77-3.758 3.764 3.764 0 0 1 3.77-3.758Zm0-14.23a3.756 3.756 0 1 1 0 7.512c-2.077 0-3.769-1.684-3.769-3.754a3.764 3.764 0 0 1 3.77-3.758Zm0-14.23a3.757 3.757 0 1 1 0 7.511 3.763 3.763 0 0 1-3.769-3.754 3.767 3.767 0 0 1 3.77-3.758Zm19.032 42.687a3.77 3.77 0 0 1 3.77 3.758 3.768 3.768 0 0 1-3.77 3.761 3.76 3.76 0 0 1 0-7.52Zm0-14.227c2.078 0 3.77 1.68 3.77 3.758a3.77 3.77 0 0 1-3.77 3.758 3.757 3.757 0 1 1 0-7.516Zm0-14.23c2.078 0 3.77 1.68 3.77 3.758 0 2.07-1.692 3.754-3.77 3.754a3.757 3.757 0 1 1 0-7.512Zm0-14.23a3.767 3.767 0 0 1 3.77 3.757 3.763 3.763 0 0 1-3.77 3.754 3.756 3.756 0 1 1 0-7.512Zm9.008 53.203v-54.922c-8.387-4.43-7.488-16.59-7.488-16.59h-20.864c.125 12.015-8.46 16.015-8.46 16.015v55.497c20.617 15.445 36.812 0 36.812 0"/><path fill="#070303" d="M389.227 191.188h-.348v321.515l.348.008ZM385.867 191.188h.363l-.293 321.527h-.363l.293-321.528M382.79 191.188h-.353v321.515l.352.008ZM379.777 191.188h-.351v321.515l.351.008ZM376.777 191.188h-.359v321.515l.36.008ZM373.766 191.188l.656 321.527h-.363l-.641-321.528h.348"/><path d="M194.987 766.17h-6.78v17.609h-4.095v-17.61h-6.78v-3.609h17.655ZM218.036 783.935c-1.555 0-2.965-.3-4.235-.906a10.577 10.577 0 0 1-3.25-2.422 11.111 11.111 0 0 1-2.109-3.453c-.5-1.3-.75-2.629-.75-3.984 0-1.415.266-2.77.797-4.063a11.12 11.12 0 0 1 2.187-3.437c.926-1 2.024-1.79 3.297-2.375 1.27-.594 2.657-.891 4.157-.891 1.53 0 2.925.32 4.187.953 1.27.625 2.352 1.45 3.25 2.469a11.323 11.323 0 0 1 2.094 3.469c.5 1.292.75 2.605.75 3.937 0 1.418-.262 2.766-.781 4.047a10.958 10.958 0 0 1-2.141 3.406 10.374 10.374 0 0 1-3.297 2.375c-1.273.586-2.656.875-4.156.875Zm-6.156-10.765c0 .917.14 1.804.421 2.656a7.36 7.36 0 0 0 1.204 2.281 6.038 6.038 0 0 0 1.937 1.578c.77.399 1.645.594 2.625.594 1 0 1.879-.203 2.64-.61a5.867 5.867 0 0 0 1.938-1.624 7.293 7.293 0 0 0 1.203-2.282c.27-.851.407-1.718.407-2.593 0-.915-.149-1.801-.438-2.657a7.068 7.068 0 0 0-1.219-2.281 5.87 5.87 0 0 0-1.953-1.562c-.762-.383-1.62-.579-2.578-.579-1 0-1.89.204-2.672.61a5.932 5.932 0 0 0-1.937 1.61 7.38 7.38 0 0 0-1.172 2.28 8.31 8.31 0 0 0-.406 2.579ZM251.897 780.279c.977 0 1.801-.195 2.47-.594a4.768 4.768 0 0 0 1.609-1.547 6.4 6.4 0 0 0 .875-2.203c.164-.832.25-1.687.25-2.562V762.56h4.093v10.813c0 1.46-.18 2.828-.531 4.109-.344 1.273-.89 2.387-1.64 3.344-.743.949-1.7 1.703-2.876 2.265-1.18.563-2.586.844-4.218.844-1.688 0-3.125-.289-4.313-.875-1.187-.594-2.152-1.375-2.89-2.344-.731-.968-1.262-2.086-1.594-3.359-.336-1.281-.5-2.61-.5-3.984V762.56h4.125v10.813c0 .898.082 1.761.25 2.593.176.825.469 1.559.875 2.204a4.637 4.637 0 0 0 1.594 1.53c.664.387 1.472.579 2.421.579ZM276.72 783.779V762.56h9.375c.977 0 1.88.203 2.703.61a6.91 6.91 0 0 1 2.141 1.609 7.484 7.484 0 0 1 1.406 2.281c.344.844.516 1.695.516 2.547 0 1.375-.344 2.625-1.031 3.75-.688 1.125-1.621 1.938-2.797 2.438l4.844 7.984h-4.641l-4.328-7.11h-4.063v7.11Zm4.125-10.734h5.172c.375 0 .723-.086 1.047-.266.332-.176.617-.422.86-.734.238-.313.425-.676.562-1.094.144-.414.219-.864.219-1.344 0-.5-.086-.957-.25-1.375a3.448 3.448 0 0 0-.64-1.078 2.897 2.897 0 0 0-.938-.719 2.288 2.288 0 0 0-1.047-.265h-4.985ZM325.412 783.779c0-.895.066-1.707.203-2.438a6.527 6.527 0 0 1 .719-2.015c.351-.614.832-1.192 1.437-1.735.614-.539 1.39-1.066 2.328-1.578.813-.437 1.532-.82 2.157-1.156.632-.332 1.16-.633 1.578-.906.414-.281.734-.567.953-.86.219-.289.328-.625.328-1 0-.593-.242-1.101-.719-1.53-.468-.438-1.152-.657-2.047-.657-.48 0-.921.07-1.328.203a4.893 4.893 0 0 0-1.125.516 6.57 6.57 0 0 0-.953.734 8.968 8.968 0 0 0-.781.86l-2.578-2.97c.258-.269.629-.57 1.11-.906a9.708 9.708 0 0 1 1.687-.921c.644-.29 1.359-.532 2.14-.72.79-.187 1.633-.28 2.532-.28 1.019 0 1.925.125 2.718.375.801.242 1.473.585 2.016 1.03.55.45.973.993 1.266 1.626.289.625.437 1.308.437 2.047 0 .699-.133 1.32-.39 1.859a5.46 5.46 0 0 1-1 1.422 7.64 7.64 0 0 1-1.297 1.094c-.461.312-.915.59-1.36.828l-1.219.687c-.46.25-.914.532-1.359.844-.45.313-.867.637-1.25.969-.375.324-.664.648-.86.969h9.063v3.609ZM369.379 775.013c0 1.324-.2 2.54-.594 3.64-.386 1.106-.922 2.063-1.61 2.876a7.271 7.271 0 0 1-2.452 1.875 7.057 7.057 0 0 1-3.063.672c-1.117 0-2.14-.227-3.078-.672a7.29 7.29 0 0 1-2.437-1.875c-.688-.813-1.227-1.77-1.61-2.875-.386-1.102-.578-2.317-.578-3.64 0-1.313.192-2.52.578-3.626.383-1.101.922-2.054 1.61-2.86a7.487 7.487 0 0 1 2.437-1.905c.938-.457 1.961-.688 3.078-.688 1.102 0 2.125.23 3.063.688a7.464 7.464 0 0 1 2.453 1.906c.687.805 1.223 1.758 1.61 2.86.394 1.105.593 2.312.593 3.624Zm-4.031 0c0-.789-.094-1.52-.281-2.187-.18-.664-.434-1.239-.766-1.719a3.625 3.625 0 0 0-1.156-1.11 2.936 2.936 0 0 0-1.485-.39c-.554 0-1.054.133-1.5.39a3.71 3.71 0 0 0-1.172 1.11c-.324.48-.578 1.055-.765 1.719a8.414 8.414 0 0 0-.266 2.187c0 .805.086 1.532.266 2.188.187.656.441 1.226.765 1.703.332.48.723.851 1.172 1.11.446.261.946.39 1.5.39.54 0 1.035-.129 1.485-.39a3.543 3.543 0 0 0 1.156-1.11c.332-.477.586-1.047.766-1.703a7.938 7.938 0 0 0 .28-2.188ZM396.247 780.17v3.609h-12.14v-3.61h4.25v-9.062c-.18.242-.466.484-.86.734-.387.25-.809.485-1.266.704-.46.218-.933.402-1.422.546a4.79 4.79 0 0 1-1.297.204v-3.75c.364 0 .801-.114 1.313-.344.52-.227 1.031-.5 1.531-.813.5-.32.93-.633 1.297-.937.375-.313.61-.555.703-.735h4.094v13.454ZM409.278 774.091c0-1.03.195-1.992.594-2.89a7.639 7.639 0 0 1 1.64-2.344 7.31 7.31 0 0 1 2.438-1.578c.945-.375 1.973-.563 3.078-.563 1.188 0 2.266.22 3.235.657a6.643 6.643 0 0 1 2.468 1.922c.676.835 1.196 1.855 1.563 3.062.375 1.2.562 2.563.562 4.094 0 1.937-.199 3.652-.593 5.14-.387 1.48-.934 2.72-1.641 3.72-.711 1.007-1.574 1.773-2.594 2.296-1.012.52-2.14.781-3.39.781-1.336 0-2.57-.293-3.704-.875-1.136-.574-2.093-1.402-2.875-2.484l2.297-2.5a5.052 5.052 0 0 0 1.86 1.75c.757.426 1.586.64 2.484.64 1.332 0 2.39-.527 3.172-1.578.789-1.062 1.207-2.562 1.25-4.5-.399.72-.984 1.293-1.766 1.72-.78.417-1.68.624-2.687.624-1.063 0-2.043-.176-2.938-.531a7.148 7.148 0 0 1-2.328-1.5 7.248 7.248 0 0 1-1.562-2.266 6.948 6.948 0 0 1-.563-2.797Zm7.75-4c-.543 0-1.047.106-1.515.313-.47.21-.887.5-1.25.875a4.152 4.152 0 0 0-.844 1.281c-.211.492-.313 1-.313 1.531 0 .543.102 1.047.313 1.516.207.469.484.887.828 1.25.351.355.77.633 1.25.828.476.2.988.297 1.531.297.531 0 1.035-.098 1.516-.297.476-.195.89-.473 1.234-.828.352-.363.633-.781.844-1.25.207-.469.312-.973.312-1.516a3.925 3.925 0 0 0-1.172-2.797 4.195 4.195 0 0 0-1.234-.874 3.504 3.504 0 0 0-1.5-.329ZM177.017 58.44h-6.781v17.61h-4.094V58.44h-6.781v-3.609h17.656ZM208.862 54.831v21.22h-4.094v-9.063h-9.625v9.062h-4.125V54.831h4.125v8.579h9.625V54.83ZM239.38 72.44v3.61h-14.735V54.831h14.453v3.61H228.77v5.11h8.937v3.359h-8.937v5.53ZM271.205 65.285c0-1.29.234-2.567.703-3.829a10.324 10.324 0 0 1 2.047-3.39c.895-1 1.988-1.805 3.281-2.422 1.301-.625 2.782-.938 4.438-.938 1.945 0 3.633.434 5.062 1.297 1.426.856 2.489 1.97 3.188 3.344l-3.172 2.172a5.528 5.528 0 0 0-1.016-1.5 4.761 4.761 0 0 0-1.28-.969 5.651 5.651 0 0 0-1.438-.515 6.658 6.658 0 0 0-1.47-.172c-1.03 0-1.933.21-2.702.625a5.94 5.94 0 0 0-1.922 1.625c-.5.668-.883 1.43-1.14 2.281a8.458 8.458 0 0 0-.391 2.516c0 .937.148 1.84.453 2.703.3.867.722 1.633 1.265 2.297a6.376 6.376 0 0 0 1.97 1.578c.769.398 1.612.593 2.53.593.477 0 .973-.054 1.485-.171a5.828 5.828 0 0 0 1.484-.579 5.6 5.6 0 0 0 1.297-1c.406-.406.726-.898.969-1.484l3.375 1.953a6.62 6.62 0 0 1-1.453 2.11 9.15 9.15 0 0 1-2.125 1.53c-.782.419-1.622.735-2.516.954a11.13 11.13 0 0 1-2.64.328c-1.512 0-2.9-.316-4.157-.953a10.776 10.776 0 0 1-3.234-2.484 11.673 11.673 0 0 1-2.125-3.5 10.921 10.921 0 0 1-.766-4ZM310.397 54.831h3.64l8.078 21.22h-4.25l-1.968-5.298h-7.407l-1.953 5.297h-4.234Zm4.75 13.032-2.922-8.344-3.047 8.344ZM335.81 76.05V54.831h9.375c.977 0 1.88.204 2.703.61a6.91 6.91 0 0 1 2.14 1.61 7.484 7.484 0 0 1 1.407 2.28c.344.844.516 1.696.516 2.547 0 1.375-.344 2.625-1.031 3.75-.688 1.125-1.622 1.938-2.797 2.438l4.843 7.984h-4.64l-4.328-7.11h-4.063v7.11Zm4.125-10.734h5.172c.375 0 .723-.086 1.047-.266.332-.176.617-.422.86-.734.238-.313.425-.676.562-1.094.144-.414.219-.863.219-1.344 0-.5-.086-.957-.25-1.375a3.448 3.448 0 0 0-.641-1.078 2.897 2.897 0 0 0-.938-.719 2.288 2.288 0 0 0-1.046-.265h-4.985ZM382.905 58.44h-6.781v17.61h-4.094V58.44h-6.781v-3.609h17.656ZM411.641 72.44v3.61h-14.734V54.831h14.453v3.61h-10.328v5.11h8.937v3.359h-8.937v5.53ZM426.23 76.05V54.831h9.375c.976 0 1.879.204 2.703.61a6.91 6.91 0 0 1 2.14 1.61 7.484 7.484 0 0 1 1.407 2.28c.344.844.515 1.696.515 2.547 0 1.375-.343 2.625-1.03 3.75-.688 1.125-1.622 1.938-2.798 2.438l4.844 7.984h-4.64l-4.329-7.11h-4.062v7.11Zm4.125-10.734h5.172c.375 0 .722-.086 1.047-.266.332-.176.617-.422.859-.734.238-.313.426-.676.562-1.094.145-.414.22-.863.22-1.344 0-.5-.087-.957-.25-1.375a3.448 3.448 0 0 0-.641-1.078 2.897 2.897 0 0 0-.938-.719 2.288 2.288 0 0 0-1.047-.265h-4.984ZM55.082 354.205h-3.61v-14.734h21.219v14.453h-3.61v-10.328h-5.109v8.937h-3.36v-8.937h-5.53ZM54.972 377.747c0 .976.196 1.8.594 2.469.395.664.91 1.203 1.547 1.609a6.4 6.4 0 0 0 2.203.875c.832.164 1.687.25 2.562.25h10.813v4.094H61.878c-1.46 0-2.828-.18-4.109-.532-1.273-.343-2.387-.89-3.344-1.64-.949-.742-1.703-1.7-2.265-2.875-.563-1.18-.844-2.586-.844-4.219 0-1.687.29-3.125.875-4.312.594-1.188 1.375-2.153 2.344-2.891.968-.73 2.086-1.262 3.36-1.594 1.28-.336 2.608-.5 3.983-.5h10.813v4.125H61.878c-.898 0-1.761.082-2.593.25a6.726 6.726 0 0 0-2.203.875 4.637 4.637 0 0 0-1.532 1.594c-.386.664-.578 1.473-.578 2.422ZM51.472 402.57h21.219v9.375c0 .976-.203 1.879-.61 2.703a6.91 6.91 0 0 1-1.609 2.14 7.484 7.484 0 0 1-2.281 1.407 6.712 6.712 0 0 1-2.547.515c-1.375 0-2.625-.343-3.75-1.03-1.125-.688-1.937-1.622-2.437-2.798l-7.985 4.844v-4.64l7.11-4.329v-4.062h-7.11Zm10.735 4.125v5.172c0 .375.086.722.265 1.047.176.332.422.617.735.859.312.238.675.426 1.093.562.414.145.864.22 1.344.22.5 0 .957-.087 1.375-.25a3.448 3.448 0 0 0 1.078-.641c.313-.274.551-.586.719-.938.176-.344.266-.695.266-1.047v-4.984ZM51.316 442.852c0-1.554.3-2.965.906-4.234a10.577 10.577 0 0 1 2.422-3.25 11.111 11.111 0 0 1 3.453-2.11c1.301-.5 2.63-.75 3.985-.75 1.414 0 2.77.266 4.062.797a11.12 11.12 0 0 1 3.438 2.188c1 .926 1.789 2.023 2.375 3.297.593 1.27.89 2.656.89 4.156 0 1.531-.32 2.926-.953 4.188a10.408 10.408 0 0 1-2.469 3.25 11.323 11.323 0 0 1-3.468 2.093c-1.293.5-2.606.75-3.938.75-1.418 0-2.766-.261-4.047-.78a10.958 10.958 0 0 1-3.406-2.142 10.374 10.374 0 0 1-2.375-3.296c-.586-1.274-.875-2.657-.875-4.157Zm10.766-6.156a8.42 8.42 0 0 0-2.657.422 7.36 7.36 0 0 0-2.28 1.203 6.038 6.038 0 0 0-1.579 1.938c-.398.77-.594 1.644-.594 2.625 0 1 .203 1.878.61 2.64.406.77.945 1.414 1.625 1.938.675.53 1.437.93 2.28 1.203.852.27 1.72.406 2.595.406.914 0 1.8-.148 2.656-.437a7.068 7.068 0 0 0 2.281-1.22 5.87 5.87 0 0 0 1.563-1.952c.382-.762.578-1.621.578-2.578 0-1-.203-1.891-.61-2.672a5.932 5.932 0 0 0-1.609-1.938 7.38 7.38 0 0 0-2.281-1.172 8.31 8.31 0 0 0-2.578-.406ZM51.472 467.76h21.219v8.985c0 .977-.203 1.88-.61 2.703a6.91 6.91 0 0 1-1.609 2.14 7.484 7.484 0 0 1-2.281 1.407 6.712 6.712 0 0 1-2.547.516 7.402 7.402 0 0 1-2.625-.485 7.504 7.504 0 0 1-2.25-1.343 6.697 6.697 0 0 1-1.594-2.094c-.398-.813-.593-1.711-.593-2.688v-5.015h-7.11Zm10.735 4.126v4.781c0 .75.304 1.379.921 1.89.614.508 1.454.766 2.516.766.531 0 1.008-.086 1.438-.25.437-.156.8-.367 1.093-.625.301-.25.524-.554.672-.906.156-.344.235-.7.235-1.062v-4.594ZM55.082 512.476h-3.61V497.74h21.219v14.453h-3.61v-10.328h-5.109v8.938h-3.36v-8.938h-5.53ZM543.075 476.348h-21.219v-14.25h3.61v10.125h5.468V463.8h3.36v8.422h8.781ZM543.075 447.832h-21.219v-4.125h21.22ZM543.075 427.923h-21.219v-9.375c0-.977.203-1.879.61-2.703a6.91 6.91 0 0 1 1.61-2.14 7.484 7.484 0 0 1 2.28-1.407 6.712 6.712 0 0 1 2.547-.516c1.375 0 2.625.344 3.75 1.032 1.125.687 1.938 1.62 2.438 2.796l7.984-4.843v4.64l-7.11 4.328v4.063h7.11Zm-10.734-4.125v-5.172c0-.375-.086-.723-.266-1.047a2.654 2.654 0 0 0-.734-.86 3.662 3.662 0 0 0-1.094-.562 4.056 4.056 0 0 0-1.344-.218c-.5 0-.957.086-1.375.25a3.448 3.448 0 0 0-1.078.64c-.312.274-.55.586-.719.938a2.288 2.288 0 0 0-.265 1.047v4.984ZM527.419 384.047c-.145.148-.336.402-.578.765a9.21 9.21 0 0 0-.703 1.344 11.823 11.823 0 0 0-.579 1.719 7.666 7.666 0 0 0-.234 1.89c0 1.137.211 1.985.625 2.547.418.555 1.008.828 1.766.828.437 0 .804-.101 1.093-.312.282-.207.532-.508.75-.906.22-.407.422-.91.61-1.516.18-.613.367-1.316.562-2.11a30.33 30.33 0 0 1 .907-2.827c.312-.844.71-1.555 1.187-2.141a4.848 4.848 0 0 1 1.719-1.36c.668-.32 1.492-.484 2.469-.484 1.136 0 2.109.215 2.921.64a5.44 5.44 0 0 1 1.954 1.735c.492.73.851 1.57 1.078 2.516.226.937.343 1.93.343 2.969 0 1.593-.238 3.168-.718 4.718a14.629 14.629 0 0 1-2.032 4.188l-3.546-1.828c.18-.176.414-.5.703-.97.28-.468.57-1.019.86-1.655.292-.633.538-1.344.733-2.125.2-.782.297-1.578.297-2.391 0-2.27-.726-3.406-2.187-3.406-.457 0-.844.133-1.156.39-.32.262-.602.633-.844 1.11-.238.469-.457 1.047-.656 1.734-.196.68-.415 1.434-.657 2.266a20.628 20.628 0 0 1-.906 2.64c-.332.75-.723 1.375-1.172 1.875-.445.5-.96.875-1.547 1.125-.593.243-1.297.36-2.11.36-1.07 0-2.023-.196-2.858-.594a5.637 5.637 0 0 1-2.094-1.656c-.563-.707-.988-1.531-1.281-2.469a10.177 10.177 0 0 1-.438-3.016c0-1.5.234-2.875.703-4.125.469-1.257 1.024-2.351 1.656-3.28ZM525.466 351.146v6.782h17.61v4.093h-17.61v6.782h-3.61v-17.657Zm0 0" fill="#ddd1b8"/></svg>