<svg xmlns="http://www.w3.org/2000/svg" xmlns:xlink="http://www.w3.org/1999/xlink" width="500" zoomAndPan="magnify" viewBox="0 0 375 374.999991" height="500" preserveAspectRatio="xMidYMid meet" version="1.0"><defs><g/><clipPath id="id1"><path d="M 13.792969 2.675781 L 361 2.675781 L 361 372.425781 L 13.792969 372.425781 Z M 13.792969 2.675781 " clip-rule="nonzero"/></clipPath></defs><rect x="-37.5" width="450" fill="#ffffff" y="-37.499999" height="449.999989" fill-opacity="1"/><path fill="#0088cc" d="M 173.539062 10.488281 L 36.855469 75.234375 C 25.753906 80.617188 18.640625 91.902344 18.640625 104.398438 L 18.8125 270.699219 C 18.8125 283.023438 25.925781 294.480469 37.199219 299.691406 L 173.714844 364.613281 C 182.386719 368.78125 192.621094 368.78125 201.292969 364.613281 L 337.980469 299.691406 C 349.253906 294.308594 356.367188 283.023438 356.367188 270.527344 L 356.367188 104.226562 C 356.367188 91.726562 349.253906 80.445312 337.980469 75.234375 L 201.121094 10.488281 C 192.449219 6.320312 182.386719 6.320312 173.539062 10.488281 Z M 173.539062 10.488281 " fill-opacity="1" fill-rule="nonzero"/><g clip-path="url(#id1)"><path fill="#ffffff" d="M 187.417969 372.425781 C 182.039062 372.425781 176.664062 371.210938 171.632812 368.78125 L 35.121094 303.855469 C 22.457031 297.78125 14.128906 284.761719 14.128906 270.699219 L 13.957031 104.398438 C 13.957031 90.164062 22.109375 77.144531 34.945312 71.070312 L 171.632812 6.320312 C 181.691406 1.632812 193.140625 1.632812 203.203125 6.320312 L 339.890625 71.242188 C 352.726562 77.320312 360.878906 90.339844 360.878906 104.398438 L 360.878906 270.699219 C 360.878906 284.761719 352.550781 297.953125 339.890625 304.03125 L 203.203125 368.953125 C 198.171875 371.210938 192.792969 372.425781 187.417969 372.425781 Z M 175.621094 14.652344 L 38.933594 79.402344 C 29.394531 83.914062 23.152344 93.8125 23.152344 104.398438 L 23.324219 270.699219 C 23.324219 281.289062 29.570312 291.011719 39.109375 295.523438 L 175.621094 360.445312 C 183.082031 364.09375 191.753906 364.09375 199.210938 360.445312 L 335.898438 295.523438 C 345.4375 291.011719 351.683594 281.289062 351.683594 270.699219 L 351.683594 104.398438 C 351.683594 93.8125 345.4375 84.089844 335.898438 79.574219 L 199.210938 14.652344 C 191.753906 11.007812 183.082031 11.007812 175.621094 14.652344 Z M 175.621094 14.652344 " fill-opacity="1" fill-rule="nonzero"/></g><path fill="#ffffff" d="M 198.957031 341.527344 C 198.957031 345.558594 195.691406 348.820312 191.667969 348.820312 L 186.101562 348.820312 C 182.074219 348.820312 178.8125 345.558594 178.8125 341.527344 L 178.8125 205.59375 C 178.8125 201.566406 182.074219 198.304688 186.101562 198.304688 L 191.667969 198.304688 C 195.691406 198.304688 198.957031 201.566406 198.957031 205.597656 L 198.957031 341.527344 " fill-opacity="1" fill-rule="nonzero"/><path fill="#ffffff" d="M 223.605469 323.089844 C 223.605469 327.113281 220.339844 330.382812 216.316406 330.382812 L 215.886719 330.382812 C 211.863281 330.382812 208.597656 327.113281 208.597656 323.089844 L 208.597656 224.035156 C 208.597656 220.007812 211.863281 216.742188 215.886719 216.742188 L 216.316406 216.742188 C 220.339844 216.742188 223.605469 220.007812 223.605469 224.035156 L 223.605469 323.089844 " fill-opacity="1" fill-rule="nonzero"/><path fill="#ffffff" d="M 245.035156 304.011719 C 245.035156 307.796875 241.964844 310.867188 238.179688 310.867188 C 234.386719 310.867188 231.316406 307.796875 231.316406 304.011719 L 231.316406 243.117188 C 231.316406 239.324219 234.386719 236.253906 238.179688 236.253906 C 241.964844 236.253906 245.035156 239.324219 245.035156 243.117188 L 245.035156 304.011719 " fill-opacity="1" fill-rule="nonzero"/><path fill="#ffffff" d="M 265.183594 320.730469 C 265.183594 324.046875 262.496094 326.734375 259.179688 326.734375 C 255.863281 326.734375 253.179688 324.046875 253.179688 320.730469 L 253.179688 226.386719 C 253.179688 223.078125 255.863281 220.386719 259.179688 220.386719 C 262.496094 220.386719 265.183594 223.078125 265.183594 226.390625 L 265.183594 320.734375 " fill-opacity="1" fill-rule="nonzero"/><path fill="#ffffff" d="M 284.046875 294.144531 C 284.046875 297.222656 281.550781 299.71875 278.472656 299.71875 C 275.394531 299.71875 272.902344 297.222656 272.902344 294.144531 L 272.902344 252.972656 C 272.902344 249.898438 275.394531 247.402344 278.472656 247.402344 C 281.550781 247.402344 284.046875 249.898438 284.046875 252.972656 L 284.046875 294.144531 " fill-opacity="1" fill-rule="nonzero"/><path fill="#ffffff" d="M 300.765625 287.289062 C 300.765625 289.890625 298.652344 292.003906 296.046875 292.003906 C 293.445312 292.003906 291.332031 289.890625 291.332031 287.289062 L 291.332031 259.839844 C 291.332031 257.238281 293.445312 255.125 296.046875 255.125 C 298.652344 255.125 300.765625 257.238281 300.765625 259.839844 L 300.765625 287.289062 " fill-opacity="1" fill-rule="nonzero"/><path fill="#ffffff" d="M 314.054688 281.066406 C 314.054688 283.199219 312.328125 284.925781 310.191406 284.925781 C 308.066406 284.925781 306.335938 283.199219 306.335938 281.066406 L 306.335938 266.058594 C 306.335938 263.921875 308.066406 262.203125 310.191406 262.203125 C 312.328125 262.203125 314.054688 263.921875 314.054688 266.058594 L 314.054688 281.066406 " fill-opacity="1" fill-rule="nonzero"/><path fill="#ffffff" d="M 154.160156 323.089844 C 154.160156 327.113281 157.425781 330.382812 161.449219 330.382812 L 161.871094 330.382812 C 165.898438 330.382812 169.160156 327.113281 169.160156 323.089844 L 169.160156 224.035156 C 169.160156 220.007812 165.898438 216.742188 161.871094 216.742188 L 161.449219 216.742188 C 157.425781 216.742188 154.160156 220.007812 154.160156 224.035156 L 154.160156 323.089844 " fill-opacity="1" fill-rule="nonzero"/><path fill="#ffffff" d="M 132.722656 304.011719 C 132.722656 307.796875 135.792969 310.867188 139.585938 310.867188 C 143.371094 310.867188 146.445312 307.796875 146.445312 304.011719 L 146.445312 243.117188 C 146.445312 239.324219 143.371094 236.253906 139.585938 236.253906 C 135.792969 236.253906 132.722656 239.324219 132.722656 243.117188 L 132.722656 304.011719 " fill-opacity="1" fill-rule="nonzero"/><path fill="#ffffff" d="M 112.578125 320.730469 C 112.578125 324.046875 115.265625 326.734375 118.582031 326.734375 C 121.898438 326.734375 124.582031 324.046875 124.582031 320.730469 L 124.582031 226.386719 C 124.582031 223.078125 121.898438 220.386719 118.582031 220.386719 C 115.265625 220.386719 112.578125 223.078125 112.578125 226.390625 L 112.578125 320.734375 " fill-opacity="1" fill-rule="nonzero"/><path fill="#ffffff" d="M 93.71875 294.144531 C 93.71875 297.222656 96.214844 299.71875 99.289062 299.71875 C 102.371094 299.71875 104.859375 297.222656 104.859375 294.144531 L 104.859375 252.972656 C 104.859375 249.898438 102.371094 247.402344 99.289062 247.402344 C 96.214844 247.402344 93.71875 249.898438 93.71875 252.972656 L 93.71875 294.144531 " fill-opacity="1" fill-rule="nonzero"/><path fill="#ffffff" d="M 77 287.289062 C 77 289.890625 79.113281 292.003906 81.714844 292.003906 C 84.320312 292.003906 86.433594 289.890625 86.433594 287.289062 L 86.433594 259.839844 C 86.433594 257.238281 84.320312 255.125 81.714844 255.125 C 79.113281 255.125 77 257.238281 77 259.839844 L 77 287.289062 " fill-opacity="1" fill-rule="nonzero"/><path fill="#ffffff" d="M 63.710938 281.066406 C 63.710938 283.199219 65.4375 284.925781 67.566406 284.925781 C 69.703125 284.925781 71.425781 283.199219 71.425781 281.066406 L 71.425781 266.058594 C 71.425781 263.921875 69.703125 262.203125 67.566406 262.203125 C 65.4375 262.203125 63.710938 263.921875 63.710938 266.058594 L 63.710938 281.066406 " fill-opacity="1" fill-rule="nonzero"/><g fill="#ffffff" fill-opacity="1"><g transform="translate(69.993762, 183.321759)"><g><path d="M 16.628906 -2.484375 C 31.726562 4.585938 49.691406 -1.71875 56.953125 -16.820312 L 62.6875 -29.242188 L 57.527344 -50.648438 C 57.335938 -51.984375 58.675781 -52.175781 59.058594 -51.414062 L 75.492188 -16.820312 C 82.566406 -1.71875 100.53125 4.585938 115.628906 -2.484375 C 130.730469 -9.554688 137.035156 -27.714844 129.964844 -42.429688 L 93.460938 -119.261719 C 82.375 -142.578125 49.308594 -142.195312 38.414062 -119.070312 L 2.292969 -42.429688 C -4.777344 -27.714844 1.527344 -9.554688 16.628906 -2.484375 Z M 16.628906 -2.484375 "/></g></g></g><g fill="#ffffff" fill-opacity="1"><g transform="translate(207.02323, 183.321759)"><g><path d="M 30.960938 0 L 67.277344 0 C 107.03125 0 107.03125 -61.160156 67.277344 -61.160156 L 60.585938 -61.160156 L 60.96875 -105.691406 C 60.96875 -122.320312 47.398438 -136.082031 30.390625 -136.082031 C 13.570312 -136.082031 0 -122.320312 0 -105.691406 L 0 -30.960938 C -0.574219 -13.378906 13.1875 0 30.960938 0 Z M 30.960938 0 "/></g></g></g></svg>