<svg xmlns="http://www.w3.org/2000/svg" xmlns:xlink="http://www.w3.org/1999/xlink" width="793" zoomAndPan="magnify" viewBox="0 0 594.95996 842.24997" height="1122" preserveAspectRatio="xMidYMid meet" version="1.0"><defs><g/><clipPath id="id1"><path d="M 0.246094 0 L 594.675781 0 L 594.675781 841.5 L 0.246094 841.5 Z M 0.246094 0 " clip-rule="nonzero"/></clipPath><clipPath id="id2"><path d="M 0.246094 0 L 594.675781 0 L 594.675781 841 L 0.246094 841 Z M 0.246094 0 " clip-rule="nonzero"/></clipPath><clipPath id="id3"><path d="M 0.246094 0 L 594.675781 0 L 594.675781 840.792969 L 0.246094 840.792969 Z M 0.246094 0 " clip-rule="nonzero"/></clipPath></defs><g clip-path="url(#id1)"><path fill="#ffffff" d="M 0.246094 0 L 594.714844 0 L 594.714844 1688.328125 L 0.246094 1688.328125 Z M 0.246094 0 " fill-opacity="1" fill-rule="nonzero"/></g><g clip-path="url(#id2)"><path fill="#da2912" d="M 0.246094 0 L 594.714844 0 L 594.714844 840.792969 L 0.246094 840.792969 Z M 0.246094 0 " fill-opacity="1" fill-rule="nonzero"/></g><g clip-path="url(#id3)"><path fill="#ffffff" d="M 0.246094 0 L 594.714844 0 L 594.714844 840.792969 L 0.246094 840.792969 Z M 0.246094 0 " fill-opacity="1" fill-rule="nonzero"/><path fill="#da2912" d="M 0.246094 0 L 594.714844 0 L 594.714844 840.792969 L 0.246094 840.792969 Z M 0.246094 0 " fill-opacity="1" fill-rule="nonzero"/></g><path fill="#ddd1b8" d="M 236.855469 653.554688 L 191.324219 653.554688 L 191.324219 643.691406 L 236.855469 643.691406 Z M 300.394531 616.679688 C 292.808594 602.039062 278.886719 592 270.195312 578.40625 C 259.0625 560.964844 278.140625 543.851562 280.707031 526.628906 C 282.386719 515.355469 280.476562 502.484375 274.710938 492.097656 C 265.867188 476.277344 253.472656 465.75 232.0625 463.652344 C 231.769531 463.628906 231.476562 463.605469 231.1875 463.570312 L 232.144531 552.617188 C 240.277344 558.273438 245.609375 567.679688 245.609375 578.324219 C 245.609375 595.625 231.570312 609.652344 214.253906 609.652344 C 196.9375 609.652344 182.902344 595.625 182.902344 578.324219 C 182.902344 567.738281 188.164062 558.375 196.226562 552.710938 L 197.113281 464.746094 C 189.960938 465.984375 183.179688 467.929688 177.554688 470.785156 C 168.453125 475.402344 160.179688 484.03125 155.671875 492.097656 C 149.742188 502.695312 148.839844 515.414062 151.5 526.78125 C 154.089844 537.90625 161.464844 547.335938 164.917969 558.121094 C 171.011719 577.160156 148.1875 595.496094 137.636719 610.433594 C 122.585938 631.707031 121.410156 660.867188 136.136719 680.335938 C 152.390625 701.820312 189.320312 711.753906 219.855469 710.71875 C 224.183594 710.578125 236.625 709.785156 240.8125 709.085938 C 265.820312 704.886719 286.765625 697.578125 299.425781 678.621094 C 312.503906 659.011719 310.789062 636.757812 300.394531 616.679688 " fill-opacity="1" fill-rule="nonzero"/><path fill="#6e4519" d="M 238.164062 578.324219 C 238.164062 591.523438 227.453125 602.210938 214.253906 602.210938 C 201.046875 602.210938 190.34375 591.523438 190.34375 578.324219 C 190.34375 565.136719 201.046875 554.449219 214.253906 554.449219 C 227.453125 554.449219 238.164062 565.136719 238.164062 578.324219 " fill-opacity="1" fill-rule="nonzero"/><path fill="#4a2d0f" d="M 214.253906 554.449219 C 207.066406 554.449219 200.636719 557.605469 196.25 562.621094 C 209.039062 563.085938 219.273438 573.589844 219.273438 586.484375 C 219.273438 592.5 217.03125 597.992188 213.355469 602.1875 C 213.648438 602.199219 213.953125 602.210938 214.253906 602.210938 C 227.453125 602.210938 238.164062 591.523438 238.164062 578.324219 C 238.164062 565.140625 227.453125 554.449219 214.253906 554.449219 " fill-opacity="1" fill-rule="nonzero"/><path fill="#070303" d="M 214.253906 554.449219 C 201.046875 554.449219 190.34375 565.140625 190.34375 578.324219 C 190.34375 591.523438 201.046875 602.210938 214.253906 602.210938 C 227.453125 602.210938 238.164062 591.523438 238.164062 578.324219 C 238.164062 565.140625 227.453125 554.449219 214.253906 554.449219 " fill-opacity="1" fill-rule="nonzero"/><path fill="#070303" d="M 232.246094 304.109375 L 237.671875 304.109375 L 237.671875 300.519531 L 232.246094 300.519531 Z M 232.246094 304.109375 " fill-opacity="1" fill-rule="nonzero"/><path fill="#070303" d="M 245.492188 303.351562 C 245.128906 304.402344 243.835938 304.886719 242.890625 305.226562 C 242.15625 305.488281 241.394531 305.6875 240.636719 305.832031 C 240.324219 305.886719 240.007812 305.925781 239.691406 305.925781 C 238.28125 305.925781 237.136719 304.785156 237.136719 303.371094 L 237.136719 301.253906 C 237.136719 299.839844 238.28125 298.695312 239.691406 298.695312 C 239.996094 298.695312 240.3125 298.738281 240.601562 298.792969 C 241 298.875 241.394531 298.96875 241.78125 299.078125 C 242.214844 299.199219 242.632812 299.351562 243.054688 299.503906 C 243.460938 299.660156 243.835938 299.859375 244.230469 300.054688 C 244.910156 300.421875 245.433594 300.863281 245.585938 301.644531 C 245.65625 301.960938 245.667969 302.277344 245.644531 302.597656 C 245.621094 302.859375 245.574219 303.117188 245.492188 303.351562 " fill-opacity="1" fill-rule="nonzero"/><path fill="#070303" d="M 232.246094 290.59375 L 237.671875 290.59375 L 237.671875 287.003906 L 232.246094 287.003906 Z M 232.246094 290.59375 " fill-opacity="1" fill-rule="nonzero"/><path fill="#070303" d="M 245.492188 289.839844 C 245.128906 290.882812 243.835938 291.375 242.890625 291.707031 C 242.15625 291.972656 241.394531 292.171875 240.636719 292.3125 C 240.324219 292.367188 240.007812 292.410156 239.691406 292.410156 C 238.28125 292.410156 237.136719 291.265625 237.136719 289.855469 L 237.136719 287.738281 C 237.136719 286.324219 238.28125 285.183594 239.691406 285.183594 C 239.996094 285.183594 240.3125 285.222656 240.601562 285.28125 C 241 285.355469 241.394531 285.453125 241.78125 285.558594 C 242.214844 285.6875 242.632812 285.832031 243.054688 285.992188 C 243.460938 286.144531 243.835938 286.34375 244.230469 286.542969 C 244.910156 286.902344 245.433594 287.347656 245.585938 288.128906 C 245.65625 288.441406 245.667969 288.761719 245.644531 289.074219 C 245.621094 289.34375 245.574219 289.597656 245.492188 289.839844 " fill-opacity="1" fill-rule="nonzero"/><path fill="#070303" d="M 232.246094 277.070312 L 237.671875 277.070312 L 237.671875 273.484375 L 232.246094 273.484375 Z M 232.246094 277.070312 " fill-opacity="1" fill-rule="nonzero"/><path fill="#070303" d="M 245.492188 276.324219 C 245.128906 277.367188 243.835938 277.859375 242.890625 278.191406 C 242.15625 278.457031 241.394531 278.65625 240.636719 278.796875 C 240.324219 278.851562 240.007812 278.894531 239.691406 278.894531 C 238.28125 278.894531 237.136719 277.75 237.136719 276.339844 L 237.136719 274.222656 C 237.136719 272.808594 238.28125 271.667969 239.691406 271.667969 C 239.996094 271.667969 240.3125 271.707031 240.601562 271.765625 C 241 271.84375 241.394531 271.933594 241.78125 272.042969 C 242.214844 272.171875 242.632812 272.316406 243.054688 272.472656 C 243.460938 272.632812 243.835938 272.828125 244.230469 273.027344 C 244.910156 273.382812 245.433594 273.828125 245.585938 274.613281 C 245.65625 274.925781 245.667969 275.246094 245.644531 275.558594 C 245.621094 275.832031 245.574219 276.089844 245.492188 276.324219 " fill-opacity="1" fill-rule="nonzero"/><path fill="#070303" d="M 232.246094 263.558594 L 237.671875 263.558594 L 237.671875 259.972656 L 232.246094 259.972656 Z M 232.246094 263.558594 " fill-opacity="1" fill-rule="nonzero"/><path fill="#070303" d="M 245.492188 262.808594 C 245.128906 263.851562 243.835938 264.339844 242.890625 264.679688 C 242.15625 264.941406 241.394531 265.144531 240.636719 265.28125 C 240.324219 265.335938 240.007812 265.375 239.691406 265.375 C 238.28125 265.375 237.136719 264.234375 237.136719 262.824219 L 237.136719 260.703125 C 237.136719 259.292969 238.28125 258.148438 239.691406 258.148438 C 239.996094 258.148438 240.3125 258.195312 240.601562 258.25 C 241 258.324219 241.394531 258.417969 241.78125 258.53125 C 242.214844 258.65625 242.632812 258.800781 243.054688 258.960938 C 243.460938 259.109375 243.835938 259.3125 244.230469 259.511719 C 244.910156 259.871094 245.433594 260.3125 245.585938 261.097656 C 245.65625 261.414062 245.667969 261.730469 245.644531 262.046875 C 245.621094 262.3125 245.574219 262.570312 245.492188 262.808594 " fill-opacity="1" fill-rule="nonzero"/><path fill="#070303" d="M 190.835938 263.558594 L 196.25 263.558594 L 196.25 259.972656 L 190.835938 259.972656 Z M 190.835938 263.558594 " fill-opacity="1" fill-rule="nonzero"/><path fill="#070303" d="M 183.015625 260.71875 C 183.378906 259.679688 184.675781 259.1875 185.621094 258.851562 C 186.355469 258.585938 187.101562 258.382812 187.871094 258.246094 C 188.175781 258.191406 188.488281 258.148438 188.804688 258.148438 C 190.230469 258.148438 191.371094 259.292969 191.371094 260.703125 L 191.371094 262.824219 C 191.371094 264.234375 190.230469 265.375 188.804688 265.375 C 188.511719 265.375 188.199219 265.335938 187.90625 265.277344 C 187.511719 265.203125 187.113281 265.109375 186.726562 265 C 186.296875 264.875 185.863281 264.722656 185.457031 264.566406 C 185.046875 264.417969 184.664062 264.214844 184.277344 264.015625 C 183.589844 263.65625 183.074219 263.21875 182.914062 262.429688 C 182.855469 262.117188 182.84375 261.796875 182.867188 261.484375 C 182.890625 261.214844 182.925781 260.960938 183.015625 260.71875 " fill-opacity="1" fill-rule="nonzero"/><path fill="#070303" d="M 190.835938 277.070312 L 196.25 277.070312 L 196.25 273.484375 L 190.835938 273.484375 Z M 190.835938 277.070312 " fill-opacity="1" fill-rule="nonzero"/><path fill="#070303" d="M 183.015625 274.234375 C 183.378906 273.191406 184.675781 272.699219 185.621094 272.367188 C 186.355469 272.105469 187.101562 271.898438 187.871094 271.765625 C 188.175781 271.707031 188.488281 271.667969 188.804688 271.667969 C 190.230469 271.667969 191.371094 272.8125 191.371094 274.222656 L 191.371094 276.339844 C 191.371094 277.75 190.230469 278.894531 188.804688 278.894531 C 188.511719 278.894531 188.199219 278.851562 187.90625 278.792969 C 187.511719 278.71875 187.113281 278.625 186.726562 278.511719 C 186.296875 278.386719 185.863281 278.242188 185.457031 278.082031 C 185.046875 277.933594 184.664062 277.734375 184.277344 277.53125 C 183.589844 277.171875 183.074219 276.730469 182.914062 275.945312 C 182.855469 275.632812 182.84375 275.3125 182.867188 275 C 182.890625 274.730469 182.925781 274.476562 183.015625 274.234375 " fill-opacity="1" fill-rule="nonzero"/><path fill="#070303" d="M 190.835938 290.59375 L 196.25 290.59375 L 196.25 287.003906 L 190.835938 287.003906 Z M 190.835938 290.59375 " fill-opacity="1" fill-rule="nonzero"/><path fill="#070303" d="M 183.015625 287.75 C 183.378906 286.707031 184.675781 286.222656 185.621094 285.882812 C 186.355469 285.621094 187.101562 285.414062 187.871094 285.277344 C 188.175781 285.222656 188.488281 285.183594 188.804688 285.183594 C 190.230469 285.183594 191.371094 286.324219 191.371094 287.738281 L 191.371094 289.855469 C 191.371094 291.265625 190.230469 292.410156 188.804688 292.410156 C 188.511719 292.410156 188.199219 292.367188 187.90625 292.308594 C 187.511719 292.238281 187.113281 292.140625 186.726562 292.03125 C 186.296875 291.90625 185.863281 291.757812 185.457031 291.597656 C 185.046875 291.449219 184.664062 291.25 184.277344 291.042969 C 183.589844 290.691406 183.074219 290.246094 182.914062 289.457031 C 182.855469 289.148438 182.84375 288.832031 182.867188 288.511719 C 182.890625 288.246094 182.925781 287.988281 183.015625 287.75 " fill-opacity="1" fill-rule="nonzero"/><path fill="#070303" d="M 190.835938 304.109375 L 196.25 304.109375 L 196.25 300.519531 L 190.835938 300.519531 Z M 190.835938 304.109375 " fill-opacity="1" fill-rule="nonzero"/><path fill="#070303" d="M 183.015625 301.265625 C 183.378906 300.226562 184.675781 299.738281 185.621094 299.394531 C 186.355469 299.140625 187.101562 298.929688 187.871094 298.792969 C 188.175781 298.738281 188.488281 298.695312 188.804688 298.695312 C 190.230469 298.695312 191.371094 299.839844 191.371094 301.253906 L 191.371094 303.371094 C 191.371094 304.785156 190.230469 305.925781 188.804688 305.925781 C 188.511719 305.925781 188.199219 305.878906 187.90625 305.824219 C 187.511719 305.75 187.113281 305.652344 186.726562 305.542969 C 186.296875 305.421875 185.863281 305.277344 185.457031 305.117188 C 185.046875 304.964844 184.664062 304.765625 184.277344 304.5625 C 183.589844 304.207031 183.074219 303.761719 182.914062 302.980469 C 182.855469 302.664062 182.84375 302.347656 182.867188 302.027344 C 182.890625 301.765625 182.925781 301.503906 183.015625 301.265625 " fill-opacity="1" fill-rule="nonzero"/><path fill="#070303" d="M 227.019531 550.261719 L 201.488281 550.261719 L 203.742188 327.597656 L 224.605469 327.597656 L 227.019531 550.261719 " fill-opacity="1" fill-rule="nonzero"/><path fill="#ffffff" d="M 201.605469 540.527344 L 226.902344 540.527344 L 226.902344 539.457031 L 201.605469 539.457031 Z M 201.605469 540.527344 " fill-opacity="1" fill-rule="nonzero"/><path fill="#ffffff" d="M 201.605469 530.304688 L 226.902344 530.304688 L 226.902344 529.230469 L 201.605469 529.230469 Z M 201.605469 530.304688 " fill-opacity="1" fill-rule="nonzero"/><path fill="#ffffff" d="M 201.804688 520.089844 L 226.683594 520.089844 L 226.683594 519.007812 L 201.804688 519.007812 Z M 201.804688 520.089844 " fill-opacity="1" fill-rule="nonzero"/><path fill="#ffffff" d="M 201.804688 509.855469 L 226.566406 509.855469 L 226.566406 508.792969 L 201.804688 508.792969 Z M 201.804688 509.855469 " fill-opacity="1" fill-rule="nonzero"/><path fill="#ffffff" d="M 202.015625 499.628906 L 226.460938 499.628906 L 226.460938 498.558594 L 202.015625 498.558594 Z M 202.015625 499.628906 " fill-opacity="1" fill-rule="nonzero"/><path fill="#ffffff" d="M 202.109375 489.417969 L 226.355469 489.417969 L 226.355469 488.34375 L 202.109375 488.34375 Z M 202.109375 489.417969 " fill-opacity="1" fill-rule="nonzero"/><path fill="#ffffff" d="M 202.210938 479.179688 L 226.238281 479.179688 L 226.238281 478.121094 L 202.210938 478.121094 Z M 202.210938 479.179688 " fill-opacity="1" fill-rule="nonzero"/><path fill="#ffffff" d="M 202.316406 468.96875 L 226.121094 468.96875 L 226.121094 467.882812 L 202.316406 467.882812 Z M 202.316406 468.96875 " fill-opacity="1" fill-rule="nonzero"/><path fill="#ffffff" d="M 202.421875 458.742188 L 226.003906 458.742188 L 226.003906 457.671875 L 202.421875 457.671875 Z M 202.421875 458.742188 " fill-opacity="1" fill-rule="nonzero"/><path fill="#ffffff" d="M 202.527344 448.519531 L 225.898438 448.519531 L 225.898438 447.445312 L 202.527344 447.445312 Z M 202.527344 448.519531 " fill-opacity="1" fill-rule="nonzero"/><path fill="#ffffff" d="M 202.632812 438.292969 L 225.796875 438.292969 L 225.796875 437.222656 L 202.632812 437.222656 Z M 202.632812 438.292969 " fill-opacity="1" fill-rule="nonzero"/><path fill="#ffffff" d="M 202.84375 428.070312 L 225.5625 428.070312 L 225.5625 426.996094 L 202.84375 426.996094 Z M 202.84375 428.070312 " fill-opacity="1" fill-rule="nonzero"/><path fill="#ffffff" d="M 202.84375 417.847656 L 225.5625 417.847656 L 225.5625 416.773438 L 202.84375 416.773438 Z M 202.84375 417.847656 " fill-opacity="1" fill-rule="nonzero"/><path fill="#ffffff" d="M 202.9375 407.621094 L 225.46875 407.621094 L 225.46875 406.550781 L 202.9375 406.550781 Z M 202.9375 407.621094 " fill-opacity="1" fill-rule="nonzero"/><path fill="#ffffff" d="M 203.039062 397.398438 L 225.351562 397.398438 L 225.351562 396.324219 L 203.039062 396.324219 Z M 203.039062 397.398438 " fill-opacity="1" fill-rule="nonzero"/><path fill="#ffffff" d="M 203.144531 387.171875 L 225.246094 387.171875 L 225.246094 386.101562 L 203.144531 386.101562 Z M 203.144531 387.171875 " fill-opacity="1" fill-rule="nonzero"/><path fill="#ffffff" d="M 203.25 376.949219 L 225.128906 376.949219 L 225.128906 375.875 L 203.25 375.875 Z M 203.25 376.949219 " fill-opacity="1" fill-rule="nonzero"/><path fill="#ffffff" d="M 203.355469 366.722656 L 225.011719 366.722656 L 225.011719 365.652344 L 203.355469 365.652344 Z M 203.355469 366.722656 " fill-opacity="1" fill-rule="nonzero"/><path fill="#ffffff" d="M 203.460938 356.5 L 224.90625 356.5 L 224.90625 355.425781 L 203.460938 355.425781 Z M 203.460938 356.5 " fill-opacity="1" fill-rule="nonzero"/><path fill="#ffffff" d="M 203.460938 346.28125 L 224.792969 346.28125 L 224.792969 345.207031 L 203.460938 345.207031 Z M 203.460938 346.28125 " fill-opacity="1" fill-rule="nonzero"/><path fill="#ffffff" d="M 203.660156 336.054688 L 224.6875 336.054688 L 224.6875 334.980469 L 203.660156 334.980469 Z M 203.660156 336.054688 " fill-opacity="1" fill-rule="nonzero"/><path fill="#070303" d="M 224.289062 266.601562 C 222.210938 266.601562 220.53125 264.917969 220.53125 262.84375 C 220.53125 260.769531 222.210938 259.082031 224.289062 259.082031 C 226.367188 259.082031 228.058594 260.769531 228.058594 262.84375 C 228.058594 264.917969 226.367188 266.601562 224.289062 266.601562 Z M 224.289062 280.828125 C 222.210938 280.828125 220.53125 279.148438 220.53125 277.070312 C 220.53125 275 222.210938 273.316406 224.289062 273.316406 C 226.367188 273.316406 228.058594 275 228.058594 277.070312 C 228.058594 279.148438 226.367188 280.828125 224.289062 280.828125 Z M 224.289062 295.058594 C 222.210938 295.058594 220.53125 293.378906 220.53125 291.304688 C 220.53125 289.230469 222.210938 287.546875 224.289062 287.546875 C 226.367188 287.546875 228.058594 289.230469 228.058594 291.304688 C 228.058594 293.378906 226.367188 295.058594 224.289062 295.058594 Z M 224.289062 309.292969 C 222.210938 309.292969 220.53125 307.605469 220.53125 305.535156 C 220.53125 303.457031 222.210938 301.777344 224.289062 301.777344 C 226.367188 301.777344 228.058594 303.457031 228.058594 305.535156 C 228.058594 307.605469 226.367188 309.292969 224.289062 309.292969 Z M 205.257812 266.601562 C 203.179688 266.601562 201.488281 264.917969 201.488281 262.84375 C 201.488281 260.769531 203.179688 259.082031 205.257812 259.082031 C 207.335938 259.082031 209.015625 260.769531 209.015625 262.84375 C 209.015625 264.917969 207.335938 266.601562 205.257812 266.601562 Z M 205.257812 280.828125 C 203.179688 280.828125 201.488281 279.148438 201.488281 277.070312 C 201.488281 275 203.179688 273.316406 205.257812 273.316406 C 207.335938 273.316406 209.015625 275 209.015625 277.070312 C 209.015625 279.148438 207.335938 280.828125 205.257812 280.828125 Z M 205.257812 295.058594 C 203.179688 295.058594 201.488281 293.378906 201.488281 291.304688 C 201.488281 289.230469 203.179688 287.546875 205.257812 287.546875 C 207.335938 287.546875 209.015625 289.230469 209.015625 291.304688 C 209.015625 293.378906 207.335938 295.058594 205.257812 295.058594 Z M 205.257812 309.292969 C 203.179688 309.292969 201.488281 307.605469 201.488281 305.535156 C 201.488281 303.457031 203.179688 301.777344 205.257812 301.777344 C 207.335938 301.777344 209.015625 303.457031 209.015625 305.535156 C 209.015625 307.605469 207.335938 309.292969 205.257812 309.292969 Z M 196.25 256.085938 L 196.25 311.007812 C 204.640625 315.4375 203.742188 327.597656 203.742188 327.597656 L 224.605469 327.597656 C 224.476562 315.585938 233.066406 311.582031 233.066406 311.582031 L 233.066406 256.085938 C 212.445312 240.644531 196.25 256.085938 196.25 256.085938 " fill-opacity="1" fill-rule="nonzero"/><path fill="#ffffff" d="M 206.273438 649.125 L 206.625 649.125 L 206.625 327.609375 L 206.273438 327.605469 Z M 206.273438 649.125 " fill-opacity="1" fill-rule="nonzero"/><path fill="#ffffff" d="M 209.632812 649.125 L 209.273438 649.125 L 209.5625 327.597656 L 209.925781 327.597656 L 209.632812 649.128906 " fill-opacity="1" fill-rule="nonzero"/><path fill="#ffffff" d="M 212.714844 649.125 L 213.0625 649.125 L 213.0625 327.609375 L 212.714844 327.605469 Z M 212.714844 649.125 " fill-opacity="1" fill-rule="nonzero"/><path fill="#ffffff" d="M 215.726562 649.125 L 216.074219 649.125 L 216.074219 327.609375 L 215.726562 327.605469 Z M 215.726562 649.125 " fill-opacity="1" fill-rule="nonzero"/><path fill="#ffffff" d="M 218.722656 649.125 L 219.085938 649.125 L 219.085938 327.609375 L 218.722656 327.605469 Z M 218.722656 649.125 " fill-opacity="1" fill-rule="nonzero"/><path fill="#ffffff" d="M 221.734375 649.125 L 221.082031 327.597656 L 221.441406 327.597656 L 222.085938 649.128906 L 221.734375 649.128906 " fill-opacity="1" fill-rule="nonzero"/><path fill="#070303" d="M 358.644531 186.757812 L 404.175781 186.757812 L 404.175781 196.621094 L 358.644531 196.621094 Z M 295.109375 223.632812 C 302.691406 238.277344 316.613281 248.3125 325.308594 261.90625 C 336.4375 279.347656 317.359375 296.464844 314.792969 313.683594 C 313.113281 324.957031 315.027344 337.828125 320.792969 348.214844 C 329.636719 364.035156 342.027344 374.5625 363.441406 376.660156 C 363.730469 376.683594 364.023438 376.707031 364.316406 376.742188 L 363.359375 287.695312 C 355.226562 282.042969 349.894531 272.632812 349.894531 261.988281 C 349.894531 244.6875 363.929688 230.664062 381.246094 230.664062 C 398.5625 230.664062 412.601562 244.6875 412.601562 261.988281 C 412.601562 272.574219 407.339844 281.9375 399.273438 287.601562 L 398.386719 375.566406 C 405.542969 374.332031 412.320312 372.382812 417.945312 369.527344 C 427.046875 364.910156 435.320312 356.28125 439.828125 348.214844 C 445.757812 337.617188 446.660156 324.898438 444 313.53125 C 441.410156 302.410156 434.035156 292.976562 430.582031 282.195312 C 424.492188 263.15625 447.3125 244.816406 457.863281 229.882812 C 472.917969 208.605469 474.09375 179.449219 459.367188 159.976562 C 443.109375 138.492188 406.183594 128.558594 375.644531 129.597656 C 371.316406 129.734375 358.878906 130.527344 354.6875 131.226562 C 329.683594 135.425781 308.738281 142.734375 296.078125 161.691406 C 282.996094 181.300781 284.710938 203.558594 295.109375 223.632812 " fill-opacity="1" fill-rule="nonzero"/><path fill="#070303" d="M 357.335938 261.988281 C 357.335938 248.792969 368.050781 238.101562 381.246094 238.101562 C 394.457031 238.101562 405.15625 248.792969 405.15625 261.988281 C 405.15625 275.175781 394.457031 285.867188 381.246094 285.867188 C 368.050781 285.867188 357.335938 275.175781 357.335938 261.988281 " fill-opacity="1" fill-rule="nonzero"/><path fill="#070303" d="M 381.246094 285.867188 C 388.433594 285.867188 394.863281 282.707031 399.25 277.691406 C 386.460938 277.226562 376.230469 266.722656 376.230469 253.828125 C 376.230469 247.8125 378.46875 242.320312 382.144531 238.125 C 381.855469 238.113281 381.550781 238.101562 381.246094 238.101562 C 368.050781 238.101562 357.335938 248.792969 357.335938 261.988281 C 357.335938 275.175781 368.050781 285.867188 381.246094 285.867188 " fill-opacity="1" fill-rule="nonzero"/><path fill="#ddd1b8" d="M 381.246094 285.867188 C 394.457031 285.867188 405.15625 275.175781 405.15625 261.988281 C 405.15625 248.792969 394.457031 238.101562 381.246094 238.101562 C 368.050781 238.101562 357.335938 248.792969 357.335938 261.988281 C 357.335938 275.175781 368.050781 285.867188 381.246094 285.867188 " fill-opacity="1" fill-rule="nonzero"/><path fill="#ddd1b8" d="M 363.253906 536.203125 L 357.828125 536.203125 L 357.828125 539.792969 L 363.253906 539.792969 Z M 363.253906 536.203125 " fill-opacity="1" fill-rule="nonzero"/><path fill="#ddd1b8" d="M 350.007812 536.960938 C 350.371094 535.914062 351.667969 535.425781 352.613281 535.089844 C 353.347656 534.824219 354.105469 534.625 354.863281 534.484375 C 355.179688 534.429688 355.492188 534.386719 355.808594 534.386719 C 357.222656 534.386719 358.363281 535.53125 358.363281 536.941406 L 358.363281 539.058594 C 358.363281 540.472656 357.222656 541.621094 355.808594 541.621094 C 355.503906 541.621094 355.191406 541.574219 354.898438 541.519531 C 354.503906 541.4375 354.105469 541.347656 353.71875 541.238281 C 353.289062 541.113281 352.867188 540.964844 352.449219 540.808594 C 352.039062 540.652344 351.667969 540.453125 351.269531 540.257812 C 350.59375 539.894531 350.066406 539.449219 349.917969 538.667969 C 349.847656 538.355469 349.835938 538.035156 349.859375 537.714844 C 349.882812 537.453125 349.929688 537.199219 350.007812 536.960938 " fill-opacity="1" fill-rule="nonzero"/><path fill="#ddd1b8" d="M 363.253906 549.722656 L 357.828125 549.722656 L 357.828125 553.308594 L 363.253906 553.308594 Z M 363.253906 549.722656 " fill-opacity="1" fill-rule="nonzero"/><path fill="#ddd1b8" d="M 350.007812 550.472656 C 350.371094 549.429688 351.667969 548.9375 352.613281 548.605469 C 353.347656 548.339844 354.105469 548.140625 354.863281 548 C 355.179688 547.945312 355.492188 547.902344 355.808594 547.902344 C 357.222656 547.902344 358.363281 549.046875 358.363281 550.457031 L 358.363281 552.574219 C 358.363281 553.988281 357.222656 555.132812 355.808594 555.132812 C 355.503906 555.132812 355.191406 555.089844 354.898438 555.03125 C 354.503906 554.957031 354.105469 554.863281 353.71875 554.753906 C 353.289062 554.625 352.867188 554.480469 352.449219 554.320312 C 352.039062 554.171875 351.667969 553.96875 351.269531 553.769531 C 350.59375 553.410156 350.066406 552.96875 349.917969 552.183594 C 349.847656 551.871094 349.835938 551.550781 349.859375 551.238281 C 349.882812 550.96875 349.929688 550.714844 350.007812 550.472656 " fill-opacity="1" fill-rule="nonzero"/><path fill="#ddd1b8" d="M 363.253906 563.242188 L 357.828125 563.242188 L 357.828125 566.832031 L 363.253906 566.832031 Z M 363.253906 563.242188 " fill-opacity="1" fill-rule="nonzero"/><path fill="#ddd1b8" d="M 350.007812 563.988281 C 350.371094 562.945312 351.667969 562.453125 352.613281 562.121094 C 353.347656 561.855469 354.105469 561.65625 354.863281 561.515625 C 355.179688 561.460938 355.492188 561.421875 355.808594 561.421875 C 357.222656 561.421875 358.363281 562.5625 358.363281 563.976562 L 358.363281 566.09375 C 358.363281 567.503906 357.222656 568.648438 355.808594 568.648438 C 355.503906 568.648438 355.191406 568.605469 354.898438 568.546875 C 354.503906 568.46875 354.105469 568.378906 353.71875 568.269531 C 353.289062 568.140625 352.867188 567.996094 352.449219 567.839844 C 352.039062 567.683594 351.667969 567.484375 351.269531 567.285156 C 350.59375 566.929688 350.066406 566.484375 349.917969 565.699219 C 349.847656 565.386719 349.835938 565.066406 349.859375 564.753906 C 349.882812 564.480469 349.929688 564.226562 350.007812 563.988281 " fill-opacity="1" fill-rule="nonzero"/><path fill="#ddd1b8" d="M 363.253906 576.753906 L 357.828125 576.753906 L 357.828125 580.34375 L 363.253906 580.34375 Z M 363.253906 576.753906 " fill-opacity="1" fill-rule="nonzero"/><path fill="#ddd1b8" d="M 350.007812 577.503906 C 350.371094 576.464844 351.667969 575.976562 352.613281 575.632812 C 353.347656 575.375 354.105469 575.167969 354.863281 575.03125 C 355.179688 574.976562 355.492188 574.9375 355.808594 574.9375 C 357.222656 574.9375 358.363281 576.078125 358.363281 577.492188 L 358.363281 579.609375 C 358.363281 581.019531 357.222656 582.164062 355.808594 582.164062 C 355.503906 582.164062 355.191406 582.117188 354.898438 582.0625 C 354.503906 581.992188 354.105469 581.894531 353.71875 581.78125 C 353.289062 581.660156 352.867188 581.511719 352.449219 581.355469 C 352.039062 581.203125 351.667969 581.003906 351.269531 580.800781 C 350.59375 580.441406 350.066406 580 349.917969 579.21875 C 349.847656 578.898438 349.835938 578.585938 349.859375 578.265625 C 349.882812 578 349.929688 577.742188 350.007812 577.503906 " fill-opacity="1" fill-rule="nonzero"/><path fill="#ddd1b8" d="M 404.667969 576.753906 L 399.25 576.753906 L 399.25 580.34375 L 404.667969 580.34375 Z M 404.667969 576.753906 " fill-opacity="1" fill-rule="nonzero"/><path fill="#ddd1b8" d="M 412.484375 579.59375 C 412.121094 580.632812 410.828125 581.125 409.882812 581.464844 C 409.148438 581.726562 408.398438 581.933594 407.628906 582.070312 C 407.328125 582.125 407.011719 582.164062 406.695312 582.164062 C 405.273438 582.164062 404.128906 581.019531 404.128906 579.609375 L 404.128906 577.492188 C 404.128906 576.078125 405.273438 574.9375 406.695312 574.9375 C 406.988281 574.9375 407.304688 574.976562 407.59375 575.039062 C 407.992188 575.109375 408.386719 575.203125 408.773438 575.316406 C 409.207031 575.4375 409.636719 575.59375 410.046875 575.746094 C 410.453125 575.898438 410.839844 576.097656 411.222656 576.296875 C 411.914062 576.660156 412.425781 577.097656 412.589844 577.882812 C 412.648438 578.199219 412.660156 578.515625 412.636719 578.832031 C 412.613281 579.097656 412.578125 579.355469 412.484375 579.59375 " fill-opacity="1" fill-rule="nonzero"/><path fill="#ddd1b8" d="M 404.667969 563.242188 L 399.25 563.242188 L 399.25 566.832031 L 404.667969 566.832031 Z M 404.667969 563.242188 " fill-opacity="1" fill-rule="nonzero"/><path fill="#ddd1b8" d="M 412.484375 566.078125 C 412.121094 567.121094 410.828125 567.613281 409.882812 567.945312 C 409.148438 568.207031 408.398438 568.414062 407.628906 568.546875 C 407.328125 568.605469 407.011719 568.648438 406.695312 568.648438 C 405.273438 568.648438 404.128906 567.5 404.128906 566.09375 L 404.128906 563.976562 C 404.128906 562.5625 405.273438 561.421875 406.695312 561.421875 C 406.988281 561.421875 407.304688 561.460938 407.59375 561.519531 C 407.992188 561.59375 408.386719 561.6875 408.773438 561.800781 C 409.207031 561.925781 409.636719 562.070312 410.046875 562.230469 C 410.453125 562.378906 410.839844 562.582031 411.222656 562.78125 C 411.914062 563.140625 412.425781 563.582031 412.589844 564.367188 C 412.648438 564.679688 412.660156 565 412.636719 565.3125 C 412.613281 565.582031 412.578125 565.835938 412.484375 566.078125 " fill-opacity="1" fill-rule="nonzero"/><path fill="#ddd1b8" d="M 404.667969 549.722656 L 399.25 549.722656 L 399.25 553.308594 L 404.667969 553.308594 Z M 404.667969 549.722656 " fill-opacity="1" fill-rule="nonzero"/><path fill="#ddd1b8" d="M 412.484375 552.5625 C 412.121094 553.605469 410.828125 554.09375 409.882812 554.429688 C 409.148438 554.695312 408.398438 554.898438 407.628906 555.035156 C 407.328125 555.089844 407.011719 555.132812 406.695312 555.132812 C 405.273438 555.132812 404.128906 553.988281 404.128906 552.574219 L 404.128906 550.457031 C 404.128906 549.046875 405.273438 547.902344 406.695312 547.902344 C 406.988281 547.902344 407.304688 547.945312 407.59375 548.003906 C 407.992188 548.078125 408.386719 548.171875 408.773438 548.28125 C 409.207031 548.410156 409.636719 548.554688 410.046875 548.714844 C 410.453125 548.863281 410.839844 549.066406 411.222656 549.269531 C 411.914062 549.621094 412.425781 550.066406 412.589844 550.855469 C 412.648438 551.164062 412.660156 551.484375 412.636719 551.800781 C 412.613281 552.066406 412.578125 552.324219 412.484375 552.5625 " fill-opacity="1" fill-rule="nonzero"/><path fill="#ddd1b8" d="M 404.667969 536.203125 L 399.25 536.203125 L 399.25 539.792969 L 404.667969 539.792969 Z M 404.667969 536.203125 " fill-opacity="1" fill-rule="nonzero"/><path fill="#ddd1b8" d="M 412.484375 539.046875 C 412.121094 540.089844 410.828125 540.574219 409.882812 540.917969 C 409.148438 541.171875 408.398438 541.382812 407.628906 541.519531 C 407.328125 541.574219 407.011719 541.621094 406.695312 541.621094 C 405.273438 541.621094 404.128906 540.472656 404.128906 539.058594 L 404.128906 536.941406 C 404.128906 535.53125 405.273438 534.386719 406.695312 534.386719 C 406.988281 534.386719 407.304688 534.433594 407.59375 534.488281 C 407.992188 534.566406 408.386719 534.660156 408.773438 534.769531 C 409.207031 534.890625 409.636719 535.039062 410.046875 535.199219 C 410.453125 535.347656 410.839844 535.550781 411.222656 535.75 C 411.914062 536.109375 412.425781 536.550781 412.589844 537.332031 C 412.648438 537.648438 412.660156 537.96875 412.636719 538.285156 C 412.613281 538.550781 412.578125 538.808594 412.484375 539.046875 " fill-opacity="1" fill-rule="nonzero"/><path fill="#ddd1b8" d="M 368.480469 290.050781 L 394.011719 290.050781 L 391.761719 512.714844 L 370.898438 512.714844 L 368.480469 290.050781 " fill-opacity="1" fill-rule="nonzero"/><path fill="#070303" d="M 393.894531 299.785156 L 368.597656 299.785156 L 368.597656 300.859375 L 393.894531 300.859375 Z M 393.894531 299.785156 " fill-opacity="1" fill-rule="nonzero"/><path fill="#070303" d="M 393.894531 310.011719 L 368.597656 310.011719 L 368.597656 311.082031 L 393.894531 311.082031 Z M 393.894531 310.011719 " fill-opacity="1" fill-rule="nonzero"/><path fill="#070303" d="M 393.699219 320.222656 L 368.820312 320.222656 L 368.820312 321.308594 L 393.699219 321.308594 Z M 393.699219 320.222656 " fill-opacity="1" fill-rule="nonzero"/><path fill="#070303" d="M 393.699219 330.460938 L 368.9375 330.460938 L 368.9375 331.519531 L 393.699219 331.519531 Z M 393.699219 330.460938 " fill-opacity="1" fill-rule="nonzero"/><path fill="#070303" d="M 393.488281 340.683594 L 369.042969 340.683594 L 369.042969 341.757812 L 393.488281 341.757812 Z M 393.488281 340.683594 " fill-opacity="1" fill-rule="nonzero"/><path fill="#070303" d="M 393.394531 350.898438 L 369.144531 350.898438 L 369.144531 351.96875 L 393.394531 351.96875 Z M 393.394531 350.898438 " fill-opacity="1" fill-rule="nonzero"/><path fill="#070303" d="M 393.289062 361.132812 L 369.261719 361.132812 L 369.261719 362.195312 L 393.289062 362.195312 Z M 393.289062 361.132812 " fill-opacity="1" fill-rule="nonzero"/><path fill="#070303" d="M 393.183594 371.34375 L 369.378906 371.34375 L 369.378906 372.429688 L 393.183594 372.429688 Z M 393.183594 371.34375 " fill-opacity="1" fill-rule="nonzero"/><path fill="#070303" d="M 393.078125 381.570312 L 369.496094 381.570312 L 369.496094 382.644531 L 393.078125 382.644531 Z M 393.078125 381.570312 " fill-opacity="1" fill-rule="nonzero"/><path fill="#070303" d="M 392.972656 391.792969 L 369.601562 391.792969 L 369.601562 392.867188 L 392.972656 392.867188 Z M 392.972656 391.792969 " fill-opacity="1" fill-rule="nonzero"/><path fill="#070303" d="M 392.867188 402.019531 L 369.707031 402.019531 L 369.707031 403.089844 L 392.867188 403.089844 Z M 392.867188 402.019531 " fill-opacity="1" fill-rule="nonzero"/><path fill="#070303" d="M 392.660156 412.242188 L 369.941406 412.242188 L 369.941406 413.316406 L 392.660156 413.316406 Z M 392.660156 412.242188 " fill-opacity="1" fill-rule="nonzero"/><path fill="#070303" d="M 392.660156 422.46875 L 369.941406 422.46875 L 369.941406 423.539062 L 392.660156 423.539062 Z M 392.660156 422.46875 " fill-opacity="1" fill-rule="nonzero"/><path fill="#070303" d="M 392.566406 432.691406 L 370.035156 432.691406 L 370.035156 433.765625 L 392.566406 433.765625 Z M 392.566406 432.691406 " fill-opacity="1" fill-rule="nonzero"/><path fill="#070303" d="M 392.460938 442.917969 L 370.148438 442.917969 L 370.148438 443.988281 L 392.460938 443.988281 Z M 392.460938 442.917969 " fill-opacity="1" fill-rule="nonzero"/><path fill="#070303" d="M 392.355469 453.140625 L 370.253906 453.140625 L 370.253906 454.214844 L 392.355469 454.214844 Z M 392.355469 453.140625 " fill-opacity="1" fill-rule="nonzero"/><path fill="#070303" d="M 392.25 463.367188 L 370.371094 463.367188 L 370.371094 464.4375 L 392.25 464.4375 Z M 392.25 463.367188 " fill-opacity="1" fill-rule="nonzero"/><path fill="#070303" d="M 392.144531 473.589844 L 370.488281 473.589844 L 370.488281 474.664062 L 392.144531 474.664062 Z M 392.144531 473.589844 " fill-opacity="1" fill-rule="nonzero"/><path fill="#070303" d="M 392.039062 483.816406 L 370.59375 483.816406 L 370.59375 484.886719 L 392.039062 484.886719 Z M 392.039062 483.816406 " fill-opacity="1" fill-rule="nonzero"/><path fill="#070303" d="M 392.039062 494.03125 L 370.710938 494.03125 L 370.710938 495.109375 L 392.039062 495.109375 Z M 392.039062 494.03125 " fill-opacity="1" fill-rule="nonzero"/><path fill="#070303" d="M 391.84375 504.257812 L 370.816406 504.257812 L 370.816406 505.332031 L 391.84375 505.332031 Z M 391.84375 504.257812 " fill-opacity="1" fill-rule="nonzero"/><path fill="#ddd1b8" d="M 371.210938 573.710938 C 373.289062 573.710938 374.96875 575.398438 374.96875 577.46875 C 374.96875 579.546875 373.289062 581.230469 371.210938 581.230469 C 369.132812 581.230469 367.441406 579.546875 367.441406 577.46875 C 367.441406 575.398438 369.132812 573.710938 371.210938 573.710938 Z M 371.210938 559.484375 C 373.289062 559.484375 374.96875 561.164062 374.96875 563.242188 C 374.96875 565.3125 373.289062 567 371.210938 567 C 369.132812 567 367.441406 565.3125 367.441406 563.242188 C 367.441406 561.164062 369.132812 559.484375 371.210938 559.484375 Z M 371.210938 545.253906 C 373.289062 545.253906 374.96875 546.933594 374.96875 549.011719 C 374.96875 551.082031 373.289062 552.765625 371.210938 552.765625 C 369.132812 552.765625 367.441406 551.082031 367.441406 549.011719 C 367.441406 546.933594 369.132812 545.253906 371.210938 545.253906 Z M 371.210938 531.023438 C 373.289062 531.023438 374.96875 532.707031 374.96875 534.78125 C 374.96875 536.855469 373.289062 538.535156 371.210938 538.535156 C 369.132812 538.535156 367.441406 536.855469 367.441406 534.78125 C 367.441406 532.707031 369.132812 531.023438 371.210938 531.023438 Z M 390.242188 573.710938 C 392.320312 573.710938 394.011719 575.398438 394.011719 577.46875 C 394.011719 579.546875 392.320312 581.230469 390.242188 581.230469 C 388.167969 581.230469 386.484375 579.546875 386.484375 577.46875 C 386.484375 575.398438 388.167969 573.710938 390.242188 573.710938 Z M 390.242188 559.484375 C 392.320312 559.484375 394.011719 561.164062 394.011719 563.242188 C 394.011719 565.3125 392.320312 567 390.242188 567 C 388.167969 567 386.484375 565.3125 386.484375 563.242188 C 386.484375 561.164062 388.167969 559.484375 390.242188 559.484375 Z M 390.242188 545.253906 C 392.320312 545.253906 394.011719 546.933594 394.011719 549.011719 C 394.011719 551.082031 392.320312 552.765625 390.242188 552.765625 C 388.167969 552.765625 386.484375 551.082031 386.484375 549.011719 C 386.484375 546.933594 388.167969 545.253906 390.242188 545.253906 Z M 390.242188 531.023438 C 392.320312 531.023438 394.011719 532.707031 394.011719 534.78125 C 394.011719 536.855469 392.320312 538.535156 390.242188 538.535156 C 388.167969 538.535156 386.484375 536.855469 386.484375 534.78125 C 386.484375 532.707031 388.167969 531.023438 390.242188 531.023438 Z M 399.25 584.226562 L 399.25 529.304688 C 390.863281 524.875 391.761719 512.714844 391.761719 512.714844 L 370.898438 512.714844 C 371.023438 524.730469 362.4375 528.730469 362.4375 528.730469 L 362.4375 584.226562 C 383.054688 599.671875 399.25 584.226562 399.25 584.226562 " fill-opacity="1" fill-rule="nonzero"/><path fill="#070303" d="M 389.226562 191.1875 L 388.878906 191.1875 L 388.878906 512.703125 L 389.226562 512.710938 Z M 389.226562 191.1875 " fill-opacity="1" fill-rule="nonzero"/><path fill="#070303" d="M 385.867188 191.1875 L 386.230469 191.1875 L 385.9375 512.714844 L 385.574219 512.714844 L 385.867188 191.1875 " fill-opacity="1" fill-rule="nonzero"/><path fill="#070303" d="M 382.789062 191.1875 L 382.4375 191.1875 L 382.4375 512.703125 L 382.789062 512.710938 Z M 382.789062 191.1875 " fill-opacity="1" fill-rule="nonzero"/><path fill="#070303" d="M 379.777344 191.1875 L 379.425781 191.1875 L 379.425781 512.703125 L 379.777344 512.710938 Z M 379.777344 191.1875 " fill-opacity="1" fill-rule="nonzero"/><path fill="#070303" d="M 376.777344 191.1875 L 376.417969 191.1875 L 376.417969 512.703125 L 376.777344 512.710938 Z M 376.777344 191.1875 " fill-opacity="1" fill-rule="nonzero"/><path fill="#070303" d="M 373.765625 191.1875 L 374.421875 512.714844 L 374.058594 512.714844 L 373.417969 191.1875 L 373.765625 191.1875 " fill-opacity="1" fill-rule="nonzero"/><g fill="#ddd1b8" fill-opacity="1"><g transform="translate(176.909242, 783.778894)"><g><path d="M 18.078125 -17.609375 L 11.296875 -17.609375 L 11.296875 0 L 7.203125 0 L 7.203125 -17.609375 L 0.421875 -17.609375 L 0.421875 -21.21875 L 18.078125 -21.21875 Z M 18.078125 -17.609375 "/></g></g></g><g fill="#ddd1b8" fill-opacity="1"><g transform="translate(206.77016, 783.778894)"><g><path d="M 11.265625 0.15625 C 9.710938 0.15625 8.300781 -0.144531 7.03125 -0.75 C 5.769531 -1.363281 4.6875 -2.171875 3.78125 -3.171875 C 2.875 -4.179688 2.171875 -5.332031 1.671875 -6.625 C 1.171875 -7.925781 0.921875 -9.253906 0.921875 -10.609375 C 0.921875 -12.023438 1.1875 -13.378906 1.71875 -14.671875 C 2.25 -15.972656 2.976562 -17.117188 3.90625 -18.109375 C 4.832031 -19.109375 5.929688 -19.898438 7.203125 -20.484375 C 8.472656 -21.078125 9.859375 -21.375 11.359375 -21.375 C 12.890625 -21.375 14.285156 -21.054688 15.546875 -20.421875 C 16.816406 -19.796875 17.898438 -18.972656 18.796875 -17.953125 C 19.691406 -16.941406 20.390625 -15.785156 20.890625 -14.484375 C 21.390625 -13.191406 21.640625 -11.878906 21.640625 -10.546875 C 21.640625 -9.128906 21.378906 -7.78125 20.859375 -6.5 C 20.347656 -5.21875 19.632812 -4.082031 18.71875 -3.09375 C 17.800781 -2.101562 16.703125 -1.3125 15.421875 -0.71875 C 14.148438 -0.132812 12.765625 0.15625 11.265625 0.15625 Z M 5.109375 -10.609375 C 5.109375 -9.691406 5.25 -8.804688 5.53125 -7.953125 C 5.8125 -7.097656 6.210938 -6.335938 6.734375 -5.671875 C 7.265625 -5.015625 7.910156 -4.488281 8.671875 -4.09375 C 9.441406 -3.695312 10.316406 -3.5 11.296875 -3.5 C 12.296875 -3.5 13.175781 -3.703125 13.9375 -4.109375 C 14.707031 -4.515625 15.351562 -5.054688 15.875 -5.734375 C 16.40625 -6.410156 16.804688 -7.171875 17.078125 -8.015625 C 17.347656 -8.867188 17.484375 -9.734375 17.484375 -10.609375 C 17.484375 -11.523438 17.335938 -12.410156 17.046875 -13.265625 C 16.765625 -14.128906 16.359375 -14.890625 15.828125 -15.546875 C 15.296875 -16.203125 14.644531 -16.722656 13.875 -17.109375 C 13.113281 -17.492188 12.253906 -17.6875 11.296875 -17.6875 C 10.296875 -17.6875 9.40625 -17.484375 8.625 -17.078125 C 7.851562 -16.671875 7.207031 -16.132812 6.6875 -15.46875 C 6.175781 -14.800781 5.785156 -14.039062 5.515625 -13.1875 C 5.242188 -12.34375 5.109375 -11.484375 5.109375 -10.609375 Z M 5.109375 -10.609375 "/></g></g></g><g fill="#ddd1b8" fill-opacity="1"><g transform="translate(240.725519, 783.778894)"><g><path d="M 11.171875 -3.5 C 12.148438 -3.5 12.972656 -3.695312 13.640625 -4.09375 C 14.304688 -4.488281 14.84375 -5.003906 15.25 -5.640625 C 15.664062 -6.285156 15.957031 -7.019531 16.125 -7.84375 C 16.289062 -8.675781 16.375 -9.53125 16.375 -10.40625 L 16.375 -21.21875 L 20.46875 -21.21875 L 20.46875 -10.40625 C 20.46875 -8.945312 20.289062 -7.578125 19.9375 -6.296875 C 19.59375 -5.023438 19.046875 -3.910156 18.296875 -2.953125 C 17.554688 -2.003906 16.597656 -1.25 15.421875 -0.6875 C 14.242188 -0.125 12.835938 0.15625 11.203125 0.15625 C 9.515625 0.15625 8.078125 -0.132812 6.890625 -0.71875 C 5.703125 -1.3125 4.738281 -2.09375 4 -3.0625 C 3.269531 -4.03125 2.738281 -5.148438 2.40625 -6.421875 C 2.070312 -7.703125 1.90625 -9.03125 1.90625 -10.40625 L 1.90625 -21.21875 L 6.03125 -21.21875 L 6.03125 -10.40625 C 6.03125 -9.507812 6.113281 -8.644531 6.28125 -7.8125 C 6.457031 -6.988281 6.75 -6.253906 7.15625 -5.609375 C 7.5625 -4.972656 8.09375 -4.460938 8.75 -4.078125 C 9.414062 -3.691406 10.222656 -3.5 11.171875 -3.5 Z M 11.171875 -3.5 "/></g></g></g><g fill="#ddd1b8" fill-opacity="1"><g transform="translate(274.501566, 783.778894)"><g><path d="M 2.21875 0 L 2.21875 -21.21875 L 11.59375 -21.21875 C 12.570312 -21.21875 13.472656 -21.015625 14.296875 -20.609375 C 15.128906 -20.203125 15.84375 -19.664062 16.4375 -19 C 17.039062 -18.332031 17.507812 -17.570312 17.84375 -16.71875 C 18.1875 -15.875 18.359375 -15.023438 18.359375 -14.171875 C 18.359375 -12.796875 18.015625 -11.546875 17.328125 -10.421875 C 16.640625 -9.296875 15.707031 -8.484375 14.53125 -7.984375 L 19.375 0 L 14.734375 0 L 10.40625 -7.109375 L 6.34375 -7.109375 L 6.34375 0 Z M 6.34375 -10.734375 L 11.515625 -10.734375 C 11.890625 -10.734375 12.238281 -10.820312 12.5625 -11 C 12.894531 -11.175781 13.179688 -11.421875 13.421875 -11.734375 C 13.660156 -12.046875 13.847656 -12.410156 13.984375 -12.828125 C 14.128906 -13.242188 14.203125 -13.691406 14.203125 -14.171875 C 14.203125 -14.671875 14.117188 -15.128906 13.953125 -15.546875 C 13.796875 -15.960938 13.582031 -16.320312 13.3125 -16.625 C 13.039062 -16.9375 12.726562 -17.175781 12.375 -17.34375 C 12.03125 -17.519531 11.679688 -17.609375 11.328125 -17.609375 L 6.34375 -17.609375 Z M 6.34375 -10.734375 "/></g></g></g><g fill="#ddd1b8" fill-opacity="1"><g transform="translate(305.737267, 783.778894)"><g/></g></g><g fill="#ddd1b8" fill-opacity="1"><g transform="translate(324.271258, 783.778894)"><g><path d="M 1.140625 0 C 1.140625 -0.894531 1.207031 -1.707031 1.34375 -2.4375 C 1.476562 -3.164062 1.71875 -3.835938 2.0625 -4.453125 C 2.414062 -5.066406 2.894531 -5.644531 3.5 -6.1875 C 4.113281 -6.726562 4.890625 -7.253906 5.828125 -7.765625 C 6.640625 -8.203125 7.359375 -8.585938 7.984375 -8.921875 C 8.617188 -9.253906 9.144531 -9.554688 9.5625 -9.828125 C 9.976562 -10.109375 10.296875 -10.394531 10.515625 -10.6875 C 10.734375 -10.976562 10.84375 -11.3125 10.84375 -11.6875 C 10.84375 -12.28125 10.601562 -12.789062 10.125 -13.21875 C 9.65625 -13.65625 8.972656 -13.875 8.078125 -13.875 C 7.597656 -13.875 7.15625 -13.804688 6.75 -13.671875 C 6.351562 -13.546875 5.976562 -13.375 5.625 -13.15625 C 5.28125 -12.9375 4.960938 -12.691406 4.671875 -12.421875 C 4.390625 -12.148438 4.128906 -11.863281 3.890625 -11.5625 L 1.3125 -14.53125 C 1.570312 -14.800781 1.941406 -15.101562 2.421875 -15.4375 C 2.898438 -15.769531 3.460938 -16.078125 4.109375 -16.359375 C 4.753906 -16.648438 5.46875 -16.890625 6.25 -17.078125 C 7.039062 -17.265625 7.882812 -17.359375 8.78125 -17.359375 C 9.800781 -17.359375 10.707031 -17.234375 11.5 -16.984375 C 12.300781 -16.742188 12.972656 -16.398438 13.515625 -15.953125 C 14.066406 -15.503906 14.488281 -14.960938 14.78125 -14.328125 C 15.070312 -13.703125 15.21875 -13.019531 15.21875 -12.28125 C 15.21875 -11.582031 15.085938 -10.960938 14.828125 -10.421875 C 14.566406 -9.890625 14.234375 -9.414062 13.828125 -9 C 13.429688 -8.582031 13 -8.21875 12.53125 -7.90625 C 12.070312 -7.59375 11.617188 -7.316406 11.171875 -7.078125 C 10.816406 -6.878906 10.410156 -6.648438 9.953125 -6.390625 C 9.492188 -6.140625 9.039062 -5.859375 8.59375 -5.546875 C 8.144531 -5.234375 7.726562 -4.910156 7.34375 -4.578125 C 6.96875 -4.253906 6.679688 -3.929688 6.484375 -3.609375 L 15.546875 -3.609375 L 15.546875 0 Z M 1.140625 0 "/></g></g></g><g fill="#ddd1b8" fill-opacity="1"><g transform="translate(352.488424, 783.778894)"><g><path d="M 16.890625 -8.765625 C 16.890625 -7.441406 16.691406 -6.226562 16.296875 -5.125 C 15.910156 -4.019531 15.375 -3.0625 14.6875 -2.25 C 14 -1.445312 13.179688 -0.820312 12.234375 -0.375 C 11.296875 0.0703125 10.273438 0.296875 9.171875 0.296875 C 8.054688 0.296875 7.03125 0.0703125 6.09375 -0.375 C 5.15625 -0.820312 4.34375 -1.445312 3.65625 -2.25 C 2.96875 -3.0625 2.429688 -4.019531 2.046875 -5.125 C 1.660156 -6.226562 1.46875 -7.441406 1.46875 -8.765625 C 1.46875 -10.078125 1.660156 -11.285156 2.046875 -12.390625 C 2.429688 -13.492188 2.96875 -14.445312 3.65625 -15.25 C 4.34375 -16.0625 5.15625 -16.695312 6.09375 -17.15625 C 7.03125 -17.613281 8.054688 -17.84375 9.171875 -17.84375 C 10.273438 -17.84375 11.296875 -17.613281 12.234375 -17.15625 C 13.179688 -16.695312 14 -16.0625 14.6875 -15.25 C 15.375 -14.445312 15.910156 -13.492188 16.296875 -12.390625 C 16.691406 -11.285156 16.890625 -10.078125 16.890625 -8.765625 Z M 12.859375 -8.765625 C 12.859375 -9.554688 12.765625 -10.285156 12.578125 -10.953125 C 12.398438 -11.617188 12.144531 -12.191406 11.8125 -12.671875 C 11.488281 -13.148438 11.101562 -13.519531 10.65625 -13.78125 C 10.207031 -14.039062 9.710938 -14.171875 9.171875 -14.171875 C 8.617188 -14.171875 8.117188 -14.039062 7.671875 -13.78125 C 7.222656 -13.519531 6.832031 -13.148438 6.5 -12.671875 C 6.175781 -12.191406 5.921875 -11.617188 5.734375 -10.953125 C 5.554688 -10.285156 5.46875 -9.554688 5.46875 -8.765625 C 5.46875 -7.960938 5.554688 -7.234375 5.734375 -6.578125 C 5.921875 -5.921875 6.175781 -5.351562 6.5 -4.875 C 6.832031 -4.394531 7.222656 -4.023438 7.671875 -3.765625 C 8.117188 -3.503906 8.617188 -3.375 9.171875 -3.375 C 9.710938 -3.375 10.207031 -3.503906 10.65625 -3.765625 C 11.101562 -4.023438 11.488281 -4.394531 11.8125 -4.875 C 12.144531 -5.351562 12.398438 -5.921875 12.578125 -6.578125 C 12.765625 -7.234375 12.859375 -7.960938 12.859375 -8.765625 Z M 12.859375 -8.765625 "/></g></g></g><g fill="#ddd1b8" fill-opacity="1"><g transform="translate(382.19992, 783.778894)"><g><path d="M 14.046875 -3.609375 L 14.046875 0 L 1.90625 0 L 1.90625 -3.609375 L 6.15625 -3.609375 L 6.15625 -12.671875 C 5.976562 -12.429688 5.691406 -12.1875 5.296875 -11.9375 C 4.910156 -11.6875 4.488281 -11.453125 4.03125 -11.234375 C 3.570312 -11.015625 3.097656 -10.832031 2.609375 -10.6875 C 2.128906 -10.550781 1.695312 -10.484375 1.3125 -10.484375 L 1.3125 -14.234375 C 1.675781 -14.234375 2.113281 -14.347656 2.625 -14.578125 C 3.144531 -14.804688 3.65625 -15.078125 4.15625 -15.390625 C 4.65625 -15.710938 5.085938 -16.023438 5.453125 -16.328125 C 5.828125 -16.640625 6.0625 -16.882812 6.15625 -17.0625 L 10.25 -17.0625 L 10.25 -3.609375 Z M 14.046875 -3.609375 "/></g></g></g><g fill="#ddd1b8" fill-opacity="1"><g transform="translate(408.325057, 783.778894)"><g><path d="M 0.953125 -9.6875 C 0.953125 -10.71875 1.148438 -11.679688 1.546875 -12.578125 C 1.953125 -13.472656 2.5 -14.253906 3.1875 -14.921875 C 3.875 -15.597656 4.6875 -16.125 5.625 -16.5 C 6.570312 -16.875 7.597656 -17.0625 8.703125 -17.0625 C 9.890625 -17.0625 10.96875 -16.84375 11.9375 -16.40625 C 12.90625 -15.96875 13.726562 -15.328125 14.40625 -14.484375 C 15.082031 -13.648438 15.601562 -12.628906 15.96875 -11.421875 C 16.34375 -10.222656 16.53125 -8.859375 16.53125 -7.328125 C 16.53125 -5.390625 16.332031 -3.675781 15.9375 -2.1875 C 15.550781 -0.707031 15.003906 0.53125 14.296875 1.53125 C 13.585938 2.539062 12.722656 3.304688 11.703125 3.828125 C 10.691406 4.347656 9.5625 4.609375 8.3125 4.609375 C 6.976562 4.609375 5.742188 4.316406 4.609375 3.734375 C 3.472656 3.160156 2.515625 2.332031 1.734375 1.25 L 4.03125 -1.25 C 4.507812 -0.5 5.128906 0.0820312 5.890625 0.5 C 6.648438 0.925781 7.476562 1.140625 8.375 1.140625 C 9.707031 1.140625 10.765625 0.613281 11.546875 -0.4375 C 12.335938 -1.5 12.753906 -3 12.796875 -4.9375 C 12.398438 -4.21875 11.8125 -3.644531 11.03125 -3.21875 C 10.25 -2.800781 9.351562 -2.59375 8.34375 -2.59375 C 7.28125 -2.59375 6.300781 -2.769531 5.40625 -3.125 C 4.507812 -3.488281 3.734375 -3.988281 3.078125 -4.625 C 2.421875 -5.269531 1.898438 -6.023438 1.515625 -6.890625 C 1.140625 -7.753906 0.953125 -8.6875 0.953125 -9.6875 Z M 8.703125 -13.6875 C 8.160156 -13.6875 7.65625 -13.582031 7.1875 -13.375 C 6.71875 -13.164062 6.300781 -12.875 5.9375 -12.5 C 5.582031 -12.132812 5.300781 -11.707031 5.09375 -11.21875 C 4.882812 -10.726562 4.78125 -10.21875 4.78125 -9.6875 C 4.78125 -9.144531 4.882812 -8.640625 5.09375 -8.171875 C 5.300781 -7.703125 5.578125 -7.285156 5.921875 -6.921875 C 6.273438 -6.566406 6.691406 -6.289062 7.171875 -6.09375 C 7.648438 -5.894531 8.160156 -5.796875 8.703125 -5.796875 C 9.234375 -5.796875 9.738281 -5.894531 10.21875 -6.09375 C 10.695312 -6.289062 11.109375 -6.566406 11.453125 -6.921875 C 11.804688 -7.285156 12.085938 -7.703125 12.296875 -8.171875 C 12.503906 -8.640625 12.609375 -9.144531 12.609375 -9.6875 C 12.609375 -10.21875 12.503906 -10.726562 12.296875 -11.21875 C 12.085938 -11.707031 11.800781 -12.128906 11.4375 -12.484375 C 11.082031 -12.847656 10.671875 -13.140625 10.203125 -13.359375 C 9.734375 -13.578125 9.234375 -13.6875 8.703125 -13.6875 Z M 8.703125 -13.6875 "/></g></g></g><g fill="#ddd1b8" fill-opacity="1"><g transform="translate(158.9387, 76.050234)"><g><path d="M 18.078125 -17.609375 L 11.296875 -17.609375 L 11.296875 0 L 7.203125 0 L 7.203125 -17.609375 L 0.421875 -17.609375 L 0.421875 -21.21875 L 18.078125 -21.21875 Z M 18.078125 -17.609375 "/></g></g></g><g fill="#ddd1b8" fill-opacity="1"><g transform="translate(188.799618, 76.050234)"><g><path d="M 20.0625 -21.21875 L 20.0625 0 L 15.96875 0 L 15.96875 -9.0625 L 6.34375 -9.0625 L 6.34375 0 L 2.21875 0 L 2.21875 -21.21875 L 6.34375 -21.21875 L 6.34375 -12.640625 L 15.96875 -12.640625 L 15.96875 -21.21875 Z M 20.0625 -21.21875 "/></g></g></g><g fill="#ddd1b8" fill-opacity="1"><g transform="translate(222.426224, 76.050234)"><g><path d="M 16.953125 -3.609375 L 16.953125 0 L 2.21875 0 L 2.21875 -21.21875 L 16.671875 -21.21875 L 16.671875 -17.609375 L 6.34375 -17.609375 L 6.34375 -12.5 L 15.28125 -12.5 L 15.28125 -9.140625 L 6.34375 -9.140625 L 6.34375 -3.609375 Z M 16.953125 -3.609375 "/></g></g></g><g fill="#ddd1b8" fill-opacity="1"><g transform="translate(251.749192, 76.050234)"><g/></g></g><g fill="#ddd1b8" fill-opacity="1"><g transform="translate(270.283183, 76.050234)"><g><path d="M 0.921875 -10.765625 C 0.921875 -12.054688 1.15625 -13.332031 1.625 -14.59375 C 2.09375 -15.863281 2.773438 -16.992188 3.671875 -17.984375 C 4.566406 -18.984375 5.660156 -19.789062 6.953125 -20.40625 C 8.253906 -21.03125 9.734375 -21.34375 11.390625 -21.34375 C 13.335938 -21.34375 15.023438 -20.910156 16.453125 -20.046875 C 17.878906 -19.191406 18.941406 -18.078125 19.640625 -16.703125 L 16.46875 -14.53125 C 16.1875 -15.125 15.847656 -15.625 15.453125 -16.03125 C 15.054688 -16.445312 14.628906 -16.769531 14.171875 -17 C 13.710938 -17.238281 13.234375 -17.410156 12.734375 -17.515625 C 12.234375 -17.628906 11.742188 -17.6875 11.265625 -17.6875 C 10.234375 -17.6875 9.332031 -17.476562 8.5625 -17.0625 C 7.789062 -16.644531 7.148438 -16.101562 6.640625 -15.4375 C 6.140625 -14.769531 5.757812 -14.007812 5.5 -13.15625 C 5.238281 -12.3125 5.109375 -11.472656 5.109375 -10.640625 C 5.109375 -9.703125 5.257812 -8.800781 5.5625 -7.9375 C 5.863281 -7.070312 6.285156 -6.304688 6.828125 -5.640625 C 7.378906 -4.984375 8.035156 -4.457031 8.796875 -4.0625 C 9.566406 -3.664062 10.410156 -3.46875 11.328125 -3.46875 C 11.804688 -3.46875 12.300781 -3.523438 12.8125 -3.640625 C 13.332031 -3.765625 13.828125 -3.957031 14.296875 -4.21875 C 14.765625 -4.476562 15.195312 -4.8125 15.59375 -5.21875 C 16 -5.625 16.320312 -6.117188 16.5625 -6.703125 L 19.9375 -4.75 C 19.59375 -3.957031 19.109375 -3.253906 18.484375 -2.640625 C 17.859375 -2.035156 17.148438 -1.523438 16.359375 -1.109375 C 15.578125 -0.691406 14.738281 -0.375 13.84375 -0.15625 C 12.945312 0.0625 12.066406 0.171875 11.203125 0.171875 C 9.691406 0.171875 8.304688 -0.144531 7.046875 -0.78125 C 5.796875 -1.414062 4.71875 -2.242188 3.8125 -3.265625 C 2.90625 -4.296875 2.195312 -5.460938 1.6875 -6.765625 C 1.175781 -8.078125 0.921875 -9.410156 0.921875 -10.765625 Z M 0.921875 -10.765625 "/></g></g></g><g fill="#ddd1b8" fill-opacity="1"><g transform="translate(302.146505, 76.050234)"><g><path d="M 8.25 -21.21875 L 11.890625 -21.21875 L 19.96875 0 L 15.71875 0 L 13.75 -5.296875 L 6.34375 -5.296875 L 4.390625 0 L 0.15625 0 Z M 13 -8.1875 L 10.078125 -16.53125 L 7.03125 -8.1875 Z M 13 -8.1875 "/></g></g></g><g fill="#ddd1b8" fill-opacity="1"><g transform="translate(333.591411, 76.050234)"><g><path d="M 2.21875 0 L 2.21875 -21.21875 L 11.59375 -21.21875 C 12.570312 -21.21875 13.472656 -21.015625 14.296875 -20.609375 C 15.128906 -20.203125 15.84375 -19.664062 16.4375 -19 C 17.039062 -18.332031 17.507812 -17.570312 17.84375 -16.71875 C 18.1875 -15.875 18.359375 -15.023438 18.359375 -14.171875 C 18.359375 -12.796875 18.015625 -11.546875 17.328125 -10.421875 C 16.640625 -9.296875 15.707031 -8.484375 14.53125 -7.984375 L 19.375 0 L 14.734375 0 L 10.40625 -7.109375 L 6.34375 -7.109375 L 6.34375 0 Z M 6.34375 -10.734375 L 11.515625 -10.734375 C 11.890625 -10.734375 12.238281 -10.820312 12.5625 -11 C 12.894531 -11.175781 13.179688 -11.421875 13.421875 -11.734375 C 13.660156 -12.046875 13.847656 -12.410156 13.984375 -12.828125 C 14.128906 -13.242188 14.203125 -13.691406 14.203125 -14.171875 C 14.203125 -14.671875 14.117188 -15.128906 13.953125 -15.546875 C 13.796875 -15.960938 13.582031 -16.320312 13.3125 -16.625 C 13.039062 -16.9375 12.726562 -17.175781 12.375 -17.34375 C 12.03125 -17.519531 11.679688 -17.609375 11.328125 -17.609375 L 6.34375 -17.609375 Z M 6.34375 -10.734375 "/></g></g></g><g fill="#ddd1b8" fill-opacity="1"><g transform="translate(364.827113, 76.050234)"><g><path d="M 18.078125 -17.609375 L 11.296875 -17.609375 L 11.296875 0 L 7.203125 0 L 7.203125 -17.609375 L 0.421875 -17.609375 L 0.421875 -21.21875 L 18.078125 -21.21875 Z M 18.078125 -17.609375 "/></g></g></g><g fill="#ddd1b8" fill-opacity="1"><g transform="translate(394.688034, 76.050234)"><g><path d="M 16.953125 -3.609375 L 16.953125 0 L 2.21875 0 L 2.21875 -21.21875 L 16.671875 -21.21875 L 16.671875 -17.609375 L 6.34375 -17.609375 L 6.34375 -12.5 L 15.28125 -12.5 L 15.28125 -9.140625 L 6.34375 -9.140625 L 6.34375 -3.609375 Z M 16.953125 -3.609375 "/></g></g></g><g fill="#ddd1b8" fill-opacity="1"><g transform="translate(424.011006, 76.050234)"><g><path d="M 2.21875 0 L 2.21875 -21.21875 L 11.59375 -21.21875 C 12.570312 -21.21875 13.472656 -21.015625 14.296875 -20.609375 C 15.128906 -20.203125 15.84375 -19.664062 16.4375 -19 C 17.039062 -18.332031 17.507812 -17.570312 17.84375 -16.71875 C 18.1875 -15.875 18.359375 -15.023438 18.359375 -14.171875 C 18.359375 -12.796875 18.015625 -11.546875 17.328125 -10.421875 C 16.640625 -9.296875 15.707031 -8.484375 14.53125 -7.984375 L 19.375 0 L 14.734375 0 L 10.40625 -7.109375 L 6.34375 -7.109375 L 6.34375 0 Z M 6.34375 -10.734375 L 11.515625 -10.734375 C 11.890625 -10.734375 12.238281 -10.820312 12.5625 -11 C 12.894531 -11.175781 13.179688 -11.421875 13.421875 -11.734375 C 13.660156 -12.046875 13.847656 -12.410156 13.984375 -12.828125 C 14.128906 -13.242188 14.203125 -13.691406 14.203125 -14.171875 C 14.203125 -14.671875 14.117188 -15.128906 13.953125 -15.546875 C 13.796875 -15.960938 13.582031 -16.320312 13.3125 -16.625 C 13.039062 -16.9375 12.726562 -17.175781 12.375 -17.34375 C 12.03125 -17.519531 11.679688 -17.609375 11.328125 -17.609375 L 6.34375 -17.609375 Z M 6.34375 -10.734375 "/></g></g></g><g fill="#ddd1b8" fill-opacity="1"><g transform="translate(51.47224, 337.251983)"><g><path d="M 3.609375 16.953125 L 0 16.953125 L 0 2.21875 L 21.21875 2.21875 L 21.21875 16.671875 L 17.609375 16.671875 L 17.609375 6.34375 L 12.5 6.34375 L 12.5 15.28125 L 9.140625 15.28125 L 9.140625 6.34375 L 3.609375 6.34375 Z M 3.609375 16.953125 "/></g></g></g><g fill="#ddd1b8" fill-opacity="1"><g transform="translate(51.47224, 366.574953)"><g><path d="M 3.5 11.171875 C 3.5 12.148438 3.695312 12.972656 4.09375 13.640625 C 4.488281 14.304688 5.003906 14.84375 5.640625 15.25 C 6.285156 15.664062 7.019531 15.957031 7.84375 16.125 C 8.675781 16.289062 9.53125 16.375 10.40625 16.375 L 21.21875 16.375 L 21.21875 20.46875 L 10.40625 20.46875 C 8.945312 20.46875 7.578125 20.289062 6.296875 19.9375 C 5.023438 19.59375 3.910156 19.046875 2.953125 18.296875 C 2.003906 17.554688 1.25 16.597656 0.6875 15.421875 C 0.125 14.242188 -0.15625 12.835938 -0.15625 11.203125 C -0.15625 9.515625 0.132812 8.078125 0.71875 6.890625 C 1.3125 5.703125 2.09375 4.738281 3.0625 4 C 4.03125 3.269531 5.148438 2.738281 6.421875 2.40625 C 7.703125 2.070312 9.03125 1.90625 10.40625 1.90625 L 21.21875 1.90625 L 21.21875 6.03125 L 10.40625 6.03125 C 9.507812 6.03125 8.644531 6.113281 7.8125 6.28125 C 6.988281 6.457031 6.253906 6.75 5.609375 7.15625 C 4.972656 7.5625 4.460938 8.09375 4.078125 8.75 C 3.691406 9.414062 3.5 10.222656 3.5 11.171875 Z M 3.5 11.171875 "/></g></g></g><g fill="#ddd1b8" fill-opacity="1"><g transform="translate(51.47224, 400.351003)"><g><path d="M 0 2.21875 L 21.21875 2.21875 L 21.21875 11.59375 C 21.21875 12.570312 21.015625 13.472656 20.609375 14.296875 C 20.203125 15.128906 19.664062 15.84375 19 16.4375 C 18.332031 17.039062 17.570312 17.507812 16.71875 17.84375 C 15.875 18.1875 15.023438 18.359375 14.171875 18.359375 C 12.796875 18.359375 11.546875 18.015625 10.421875 17.328125 C 9.296875 16.640625 8.484375 15.707031 7.984375 14.53125 L 0 19.375 L 0 14.734375 L 7.109375 10.40625 L 7.109375 6.34375 L 0 6.34375 Z M 10.734375 6.34375 L 10.734375 11.515625 C 10.734375 11.890625 10.820312 12.238281 11 12.5625 C 11.175781 12.894531 11.421875 13.179688 11.734375 13.421875 C 12.046875 13.660156 12.410156 13.847656 12.828125 13.984375 C 13.242188 14.128906 13.691406 14.203125 14.171875 14.203125 C 14.671875 14.203125 15.128906 14.117188 15.546875 13.953125 C 15.960938 13.796875 16.320312 13.582031 16.625 13.3125 C 16.9375 13.039062 17.175781 12.726562 17.34375 12.375 C 17.519531 12.03125 17.609375 11.679688 17.609375 11.328125 L 17.609375 6.34375 Z M 10.734375 6.34375 "/></g></g></g><g fill="#ddd1b8" fill-opacity="1"><g transform="translate(51.47224, 431.586699)"><g><path d="M -0.15625 11.265625 C -0.15625 9.710938 0.144531 8.300781 0.75 7.03125 C 1.363281 5.769531 2.171875 4.6875 3.171875 3.78125 C 4.179688 2.875 5.332031 2.171875 6.625 1.671875 C 7.925781 1.171875 9.253906 0.921875 10.609375 0.921875 C 12.023438 0.921875 13.378906 1.1875 14.671875 1.71875 C 15.972656 2.25 17.117188 2.976562 18.109375 3.90625 C 19.109375 4.832031 19.898438 5.929688 20.484375 7.203125 C 21.078125 8.472656 21.375 9.859375 21.375 11.359375 C 21.375 12.890625 21.054688 14.285156 20.421875 15.546875 C 19.796875 16.816406 18.972656 17.898438 17.953125 18.796875 C 16.941406 19.691406 15.785156 20.390625 14.484375 20.890625 C 13.191406 21.390625 11.878906 21.640625 10.546875 21.640625 C 9.128906 21.640625 7.78125 21.378906 6.5 20.859375 C 5.21875 20.347656 4.082031 19.632812 3.09375 18.71875 C 2.101562 17.800781 1.3125 16.703125 0.71875 15.421875 C 0.132812 14.148438 -0.15625 12.765625 -0.15625 11.265625 Z M 10.609375 5.109375 C 9.691406 5.109375 8.804688 5.25 7.953125 5.53125 C 7.097656 5.8125 6.335938 6.210938 5.671875 6.734375 C 5.015625 7.265625 4.488281 7.910156 4.09375 8.671875 C 3.695312 9.441406 3.5 10.316406 3.5 11.296875 C 3.5 12.296875 3.703125 13.175781 4.109375 13.9375 C 4.515625 14.707031 5.054688 15.351562 5.734375 15.875 C 6.410156 16.40625 7.171875 16.804688 8.015625 17.078125 C 8.867188 17.347656 9.734375 17.484375 10.609375 17.484375 C 11.523438 17.484375 12.410156 17.335938 13.265625 17.046875 C 14.128906 16.765625 14.890625 16.359375 15.546875 15.828125 C 16.203125 15.296875 16.722656 14.644531 17.109375 13.875 C 17.492188 13.113281 17.6875 12.253906 17.6875 11.296875 C 17.6875 10.296875 17.484375 9.40625 17.078125 8.625 C 16.671875 7.851562 16.132812 7.207031 15.46875 6.6875 C 14.800781 6.175781 14.039062 5.785156 13.1875 5.515625 C 12.34375 5.242188 11.484375 5.109375 10.609375 5.109375 Z M 10.609375 5.109375 "/></g></g></g><g fill="#ddd1b8" fill-opacity="1"><g transform="translate(51.47224, 465.542061)"><g><path d="M 0 2.21875 L 21.21875 2.21875 L 21.21875 11.203125 C 21.21875 12.179688 21.015625 13.082031 20.609375 13.90625 C 20.203125 14.738281 19.664062 15.453125 19 16.046875 C 18.332031 16.648438 17.570312 17.117188 16.71875 17.453125 C 15.875 17.796875 15.023438 17.96875 14.171875 17.96875 C 13.273438 17.96875 12.398438 17.804688 11.546875 17.484375 C 10.703125 17.160156 9.953125 16.710938 9.296875 16.140625 C 8.640625 15.566406 8.109375 14.867188 7.703125 14.046875 C 7.304688 13.234375 7.109375 12.335938 7.109375 11.359375 L 7.109375 6.34375 L 0 6.34375 Z M 10.734375 6.34375 L 10.734375 11.125 C 10.734375 11.875 11.039062 12.503906 11.65625 13.015625 C 12.269531 13.523438 13.109375 13.78125 14.171875 13.78125 C 14.703125 13.78125 15.179688 13.695312 15.609375 13.53125 C 16.046875 13.375 16.410156 13.164062 16.703125 12.90625 C 17.003906 12.65625 17.226562 12.351562 17.375 12 C 17.53125 11.65625 17.609375 11.300781 17.609375 10.9375 L 17.609375 6.34375 Z M 10.734375 6.34375 "/></g></g></g><g fill="#ddd1b8" fill-opacity="1"><g transform="translate(51.47224, 495.52254)"><g><path d="M 3.609375 16.953125 L 0 16.953125 L 0 2.21875 L 21.21875 2.21875 L 21.21875 16.671875 L 17.609375 16.671875 L 17.609375 6.34375 L 12.5 6.34375 L 12.5 15.28125 L 9.140625 15.28125 L 9.140625 6.34375 L 3.609375 6.34375 Z M 3.609375 16.953125 "/></g></g></g><g fill="#ddd1b8" fill-opacity="1"><g transform="translate(543.075052, 478.566526)"><g><path d="M 0 -2.21875 L -21.21875 -2.21875 L -21.21875 -16.46875 L -17.609375 -16.46875 L -17.609375 -6.34375 L -12.140625 -6.34375 L -12.140625 -14.765625 L -8.78125 -14.765625 L -8.78125 -6.34375 L 0 -6.34375 Z M 0 -2.21875 "/></g></g></g><g fill="#ddd1b8" fill-opacity="1"><g transform="translate(543.075052, 450.050485)"><g><path d="M 0 -2.21875 L -21.21875 -2.21875 L -21.21875 -6.34375 L 0 -6.34375 Z M 0 -2.21875 "/></g></g></g><g fill="#ddd1b8" fill-opacity="1"><g transform="translate(543.075052, 430.141734)"><g><path d="M 0 -2.21875 L -21.21875 -2.21875 L -21.21875 -11.59375 C -21.21875 -12.570312 -21.015625 -13.472656 -20.609375 -14.296875 C -20.203125 -15.128906 -19.664062 -15.84375 -19 -16.4375 C -18.332031 -17.039062 -17.570312 -17.507812 -16.71875 -17.84375 C -15.875 -18.1875 -15.023438 -18.359375 -14.171875 -18.359375 C -12.796875 -18.359375 -11.546875 -18.015625 -10.421875 -17.328125 C -9.296875 -16.640625 -8.484375 -15.707031 -7.984375 -14.53125 L 0 -19.375 L 0 -14.734375 L -7.109375 -10.40625 L -7.109375 -6.34375 L 0 -6.34375 Z M -10.734375 -6.34375 L -10.734375 -11.515625 C -10.734375 -11.890625 -10.820312 -12.238281 -11 -12.5625 C -11.175781 -12.894531 -11.421875 -13.179688 -11.734375 -13.421875 C -12.046875 -13.660156 -12.410156 -13.847656 -12.828125 -13.984375 C -13.242188 -14.128906 -13.691406 -14.203125 -14.171875 -14.203125 C -14.671875 -14.203125 -15.128906 -14.117188 -15.546875 -13.953125 C -15.960938 -13.796875 -16.320312 -13.582031 -16.625 -13.3125 C -16.9375 -13.039062 -17.175781 -12.726562 -17.34375 -12.375 C -17.519531 -12.03125 -17.609375 -11.679688 -17.609375 -11.328125 L -17.609375 -6.34375 Z M -10.734375 -6.34375 "/></g></g></g><g fill="#ddd1b8" fill-opacity="1"><g transform="translate(543.075052, 398.906037)"><g><path d="M -15.65625 -14.859375 C -15.800781 -14.710938 -15.992188 -14.457031 -16.234375 -14.09375 C -16.472656 -13.726562 -16.707031 -13.28125 -16.9375 -12.75 C -17.164062 -12.21875 -17.359375 -11.644531 -17.515625 -11.03125 C -17.671875 -10.414062 -17.75 -9.785156 -17.75 -9.140625 C -17.75 -8.003906 -17.539062 -7.15625 -17.125 -6.59375 C -16.707031 -6.039062 -16.117188 -5.765625 -15.359375 -5.765625 C -14.921875 -5.765625 -14.554688 -5.867188 -14.265625 -6.078125 C -13.984375 -6.285156 -13.734375 -6.585938 -13.515625 -6.984375 C -13.296875 -7.390625 -13.09375 -7.894531 -12.90625 -8.5 C -12.726562 -9.113281 -12.539062 -9.816406 -12.34375 -10.609375 C -12.0625 -11.648438 -11.757812 -12.59375 -11.4375 -13.4375 C -11.125 -14.28125 -10.726562 -14.992188 -10.25 -15.578125 C -9.769531 -16.171875 -9.195312 -16.625 -8.53125 -16.9375 C -7.863281 -17.257812 -7.039062 -17.421875 -6.0625 -17.421875 C -4.925781 -17.421875 -3.953125 -17.207031 -3.140625 -16.78125 C -2.335938 -16.351562 -1.6875 -15.773438 -1.1875 -15.046875 C -0.695312 -14.316406 -0.335938 -13.476562 -0.109375 -12.53125 C 0.117188 -11.59375 0.234375 -10.601562 0.234375 -9.5625 C 0.234375 -7.96875 -0.00390625 -6.394531 -0.484375 -4.84375 C -0.960938 -3.289062 -1.640625 -1.894531 -2.515625 -0.65625 L -6.0625 -2.484375 C -5.882812 -2.660156 -5.648438 -2.984375 -5.359375 -3.453125 C -5.078125 -3.921875 -4.789062 -4.472656 -4.5 -5.109375 C -4.207031 -5.742188 -3.960938 -6.453125 -3.765625 -7.234375 C -3.566406 -8.015625 -3.46875 -8.8125 -3.46875 -9.625 C -3.46875 -11.894531 -4.195312 -13.03125 -5.65625 -13.03125 C -6.113281 -13.03125 -6.5 -12.898438 -6.8125 -12.640625 C -7.132812 -12.378906 -7.414062 -12.007812 -7.65625 -11.53125 C -7.894531 -11.0625 -8.113281 -10.484375 -8.3125 -9.796875 C -8.507812 -9.117188 -8.726562 -8.363281 -8.96875 -7.53125 C -9.25 -6.519531 -9.550781 -5.640625 -9.875 -4.890625 C -10.207031 -4.140625 -10.597656 -3.515625 -11.046875 -3.015625 C -11.492188 -2.515625 -12.007812 -2.140625 -12.59375 -1.890625 C -13.1875 -1.648438 -13.890625 -1.53125 -14.703125 -1.53125 C -15.773438 -1.53125 -16.726562 -1.726562 -17.5625 -2.125 C -18.40625 -2.519531 -19.101562 -3.070312 -19.65625 -3.78125 C -20.21875 -4.488281 -20.644531 -5.3125 -20.9375 -6.25 C -21.226562 -7.1875 -21.375 -8.191406 -21.375 -9.265625 C -21.375 -10.765625 -21.140625 -12.140625 -20.671875 -13.390625 C -20.203125 -14.648438 -19.648438 -15.742188 -19.015625 -16.671875 Z M -15.65625 -14.859375 "/></g></g></g><g fill="#ddd1b8" fill-opacity="1"><g transform="translate(543.075052, 369.224427)"><g><path d="M -17.609375 -18.078125 L -17.609375 -11.296875 L 0 -11.296875 L 0 -7.203125 L -17.609375 -7.203125 L -17.609375 -0.421875 L -21.21875 -0.421875 L -21.21875 -18.078125 Z M -17.609375 -18.078125 "/></g></g></g></svg>